<?xml version="1.0" encoding="utf-8"?>
<!-- Generator: Adobe Illustrator 24.0.2, SVG Export Plug-In . SVG Version: 6.00 Build 0)  -->
<svg version="1.1" id="katman_1" xmlns="http://www.w3.org/2000/svg" xmlns:xlink="http://www.w3.org/1999/xlink" x="0px" y="0px"
	 viewBox="0 0 24 24" style="enable-background:new 0 0 24 24;" xml:space="preserve">
<style type="text/css">
	.st0{fill:#EC1C24;}
</style>
<g>
	<path class="st0" d="M20.9,0c0,0-7.4,3.2-10.6,11.1C7.2,18.9,11.9,24,11.9,24H4.8c0,0-4-5.3-1.8-13.2C5.1,2.8,10.5,0,10.5,0H20.9z"
		/>
	<polygon class="st0" points="11.6,12.6 12.4,10.1 20.5,10.1 17.8,24 12.8,24 15.3,12.6 	"/>
	<path class="st0" d="M21.6,7.2c-0.4,1.5-1.6,2.6-2.8,2.4C17.6,9.4,17,8,17.4,6.5c0.4-1.5,1.6-2.6,2.8-2.4C21.3,4.3,22,5.7,21.6,7.2
		z"/>
</g>
</svg>
