<svg width="639" height="976" viewBox="0 0 639 976" fill="none" xmlns="http://www.w3.org/2000/svg">
<path opacity="0.1" d="M171.624 164.32L167.925 159.229L173.017 155.53C173.657 155.064 173.801 154.156 173.336 153.515C172.87 152.874 171.962 152.73 171.321 153.196L166.229 156.894L162.531 151.803C162.065 151.162 161.157 151.018 160.516 151.483C159.875 151.949 159.731 152.858 160.196 153.498L163.895 158.59L158.804 162.289C158.163 162.754 158.019 163.663 158.484 164.304C158.95 164.944 159.858 165.088 160.499 164.623L165.591 160.924L169.289 166.016C169.755 166.657 170.664 166.801 171.304 166.335C171.955 165.871 172.097 164.972 171.624 164.32Z" fill="white"/>
<path opacity="0.1" d="M512.62 218.317L508.921 213.226L514.013 209.527C514.654 209.062 514.798 208.153 514.332 207.512C513.867 206.871 512.958 206.727 512.317 207.193L507.226 210.892L503.527 205.8C503.062 205.159 502.153 205.015 501.512 205.481C500.871 205.946 500.727 206.855 501.193 207.495L504.892 212.587L499.8 216.286C499.159 216.751 499.015 217.66 499.481 218.301C499.946 218.941 500.855 219.085 501.495 218.62L506.587 214.921L510.286 220.013C510.751 220.654 511.66 220.798 512.301 220.332C512.951 219.868 513.094 218.969 512.62 218.317Z" fill="white"/>
<path opacity="0.1" d="M490.009 185.854L488.106 183.233L490.726 181.33C491.056 181.09 491.13 180.623 490.89 180.293C490.651 179.963 490.183 179.889 489.854 180.128L487.233 182.032L485.33 179.412C485.09 179.082 484.623 179.008 484.293 179.247C483.963 179.487 483.889 179.954 484.128 180.284L486.032 182.905L483.412 184.808C483.082 185.048 483.008 185.515 483.247 185.845C483.487 186.175 483.954 186.249 484.284 186.009L486.905 184.106L488.808 186.726C489.048 187.056 489.515 187.13 489.845 186.89C490.18 186.652 490.253 186.189 490.009 185.854Z" fill="white"/>
<path opacity="0.1" d="M114.77 212.76H171.53V269.52H114.77V212.76Z" stroke="white" stroke-width="2" stroke-miterlimit="10"/>
<path opacity="0.1" d="M86.39 184.38H143.15V241.14H86.39V184.38Z" fill="white"/>
<path opacity="0.1" d="M527.968 585.832L455.158 648.41C437.875 628.302 440.166 597.992 460.274 580.71C480.382 563.428 510.686 565.724 527.968 585.832Z" fill="white"/>
<path d="M601.278 18H597V35.5199H601.278V18Z" fill="#0436E7"/>
<path d="M612.144 18H607.867V35.5199H612.144V18Z" fill="#0436E7"/>
<path d="M623.011 18H618.733V35.5199H623.011V18Z" fill="#0436E7"/>
<path d="M601.278 42.9517H597V60.4716H601.278V42.9517Z" fill="#0436E7"/>
<path d="M612.144 42.9517H607.867V60.4716H612.144V42.9517Z" fill="#0436E7"/>
<path d="M612.144 67.8953H607.867V85.4152H612.144V67.8953Z" fill="#0436E7"/>
<path d="M623.011 67.8953H618.733V85.4152H623.011V67.8953Z" fill="#0436E7"/>
<path d="M601.278 92.8469H597V110.367H601.278V92.8469Z" fill="#0436E7"/>
<path d="M623.011 92.8469H618.733V110.367H623.011V92.8469Z" fill="#0436E7"/>
<path d="M601.278 117.798H597V135.318H601.278V117.798Z" fill="#0436E7"/>
<path d="M612.144 117.798H607.867V135.318H612.144V117.798Z" fill="#0436E7"/>
<path d="M601.278 142.75H597V160.27H601.278V142.75Z" fill="#0436E7"/>
<path d="M612.144 142.75H607.867V160.27H612.144V142.75Z" fill="#0436E7"/>
<path d="M623.011 142.75H618.733V160.27H623.011V142.75Z" fill="#0436E7"/>
<path d="M88.8768 889.246C87.1559 889.246 85.7537 887.844 85.7537 886.123C85.7537 884.402 87.1559 883 88.8768 883C90.5978 883 92 884.402 92 886.123C92 887.855 90.5978 889.246 88.8768 889.246ZM92 904.809C92 903.088 90.5978 901.686 88.8768 901.686C87.1559 901.686 85.7537 903.088 85.7537 904.809C85.7537 906.53 87.1559 907.932 88.8768 907.932C90.5978 907.932 92 906.54 92 904.809ZM92 923.495C92 921.774 90.5978 920.372 88.8768 920.372C87.1559 920.372 85.7537 921.774 85.7537 923.495C85.7537 925.216 87.1559 926.618 88.8768 926.618C90.5978 926.628 92 925.226 92 923.495ZM92 942.191C92 940.47 90.5978 939.068 88.8768 939.068C87.1559 939.068 85.7537 940.47 85.7537 942.191C85.7537 943.912 87.1559 945.314 88.8768 945.314C90.5978 945.314 92 943.912 92 942.191ZM92 960.877C92 959.156 90.5978 957.754 88.8768 957.754C87.1559 957.754 85.7537 959.156 85.7537 960.877C85.7537 962.598 87.1559 964 88.8768 964C90.5978 964 92 962.598 92 960.877ZM73.3142 886.123C73.3142 884.402 71.912 883 70.1911 883C68.4701 883 67.0679 884.402 67.0679 886.123C67.0679 887.844 68.4701 889.246 70.1911 889.246C71.912 889.246 73.3142 887.855 73.3142 886.123ZM73.3142 904.809C73.3142 903.088 71.912 901.686 70.1911 901.686C68.4701 901.686 67.0679 903.088 67.0679 904.809C67.0679 906.53 68.4701 907.932 70.1911 907.932C71.912 907.932 73.3142 906.54 73.3142 904.809ZM73.3142 923.495C73.3142 921.774 71.912 920.372 70.1911 920.372C68.4701 920.372 67.0679 921.774 67.0679 923.495C67.0679 925.216 68.4701 926.618 70.1911 926.618C71.912 926.628 73.3142 925.226 73.3142 923.495ZM73.3142 942.191C73.3142 940.47 71.912 939.068 70.1911 939.068C68.4701 939.068 67.0679 940.47 67.0679 942.191C67.0679 943.912 68.4701 945.314 70.1911 945.314C71.912 945.314 73.3142 943.912 73.3142 942.191ZM73.3142 960.877C73.3142 959.156 71.912 957.754 70.1911 957.754C68.4701 957.754 67.0679 959.156 67.0679 960.877C67.0679 962.598 68.4701 964 70.1911 964C71.912 964 73.3142 962.598 73.3142 960.877ZM54.6178 886.123C54.6178 884.402 53.2156 883 51.4947 883C49.7738 883 48.3715 884.402 48.3715 886.123C48.3715 887.844 49.7738 889.246 51.4947 889.246C53.2262 889.246 54.6178 887.855 54.6178 886.123ZM54.6178 904.809C54.6178 903.088 53.2156 901.686 51.4947 901.686C49.7738 901.686 48.3715 903.088 48.3715 904.809C48.3715 906.53 49.7738 907.932 51.4947 907.932C53.2262 907.932 54.6178 906.54 54.6178 904.809ZM54.6178 923.495C54.6178 921.774 53.2156 920.372 51.4947 920.372C49.7738 920.372 48.3715 921.774 48.3715 923.495C48.3715 925.216 49.7738 926.618 51.4947 926.618C53.2262 926.628 54.6178 925.226 54.6178 923.495ZM54.6178 942.191C54.6178 940.47 53.2156 939.068 51.4947 939.068C49.7738 939.068 48.3715 940.47 48.3715 942.191C48.3715 943.912 49.7738 945.314 51.4947 945.314C53.2262 945.314 54.6178 943.912 54.6178 942.191ZM54.6178 960.877C54.6178 959.156 53.2156 957.754 51.4947 957.754C49.7738 957.754 48.3715 959.156 48.3715 960.877C48.3715 962.598 49.7738 964 51.4947 964C53.2262 964 54.6178 962.598 54.6178 960.877ZM35.932 886.123C35.932 884.402 34.5298 883 32.8089 883C31.088 883 29.6858 884.402 29.6858 886.123C29.6858 887.844 31.088 889.246 32.8089 889.246C34.5404 889.246 35.932 887.855 35.932 886.123ZM35.932 904.809C35.932 903.088 34.5298 901.686 32.8089 901.686C31.088 901.686 29.6858 903.088 29.6858 904.809C29.6858 906.53 31.088 907.932 32.8089 907.932C34.5404 907.932 35.932 906.54 35.932 904.809ZM35.932 923.495C35.932 921.774 34.5298 920.372 32.8089 920.372C31.088 920.372 29.6858 921.774 29.6858 923.495C29.6858 925.216 31.088 926.618 32.8089 926.618C34.5404 926.628 35.932 925.226 35.932 923.495ZM35.932 942.191C35.932 940.47 34.5298 939.068 32.8089 939.068C31.088 939.068 29.6858 940.47 29.6858 942.191C29.6858 943.912 31.088 945.314 32.8089 945.314C34.5404 945.314 35.932 943.912 35.932 942.191ZM35.932 960.877C35.932 959.156 34.5298 957.754 32.8089 957.754C31.088 957.754 29.6858 959.156 29.6858 960.877C29.6858 962.598 31.088 964 32.8089 964C34.5404 964 35.932 962.598 35.932 960.877ZM17.2463 886.123C17.2463 884.402 15.8441 883 14.1232 883C12.4022 883 11 884.402 11 886.123C11 887.844 12.4022 889.246 14.1232 889.246C15.8441 889.246 17.2463 887.855 17.2463 886.123ZM17.2463 904.809C17.2463 903.088 15.8441 901.686 14.1232 901.686C12.4022 901.686 11 903.088 11 904.809C11 906.53 12.4022 907.932 14.1232 907.932C15.8441 907.932 17.2463 906.54 17.2463 904.809ZM17.2463 923.495C17.2463 921.774 15.8441 920.372 14.1232 920.372C12.4022 920.372 11 921.774 11 923.495C11 925.216 12.4022 926.618 14.1232 926.618C15.8441 926.618 17.2463 925.226 17.2463 923.495ZM17.2463 942.191C17.2463 940.47 15.8441 939.068 14.1232 939.068C12.4022 939.068 11 940.47 11 942.191C11 943.912 12.4022 945.314 14.1232 945.314C15.8441 945.314 17.2463 943.912 17.2463 942.191ZM17.2463 960.877C17.2463 959.156 15.8441 957.754 14.1232 957.754C12.4022 957.754 11 959.156 11 960.877C11 962.598 12.4022 964 14.1232 964C15.8441 964 17.2463 962.598 17.2463 960.877Z" fill="#0331D6"/>
</svg>
