<?xml version="1.0" encoding="utf-8"?>
<!-- Generator: Adobe Illustrator 26.3.1, SVG Export Plug-In . SVG Version: 6.00 Build 0)  -->
<svg version="1.1" id="katman_1" xmlns="http://www.w3.org/2000/svg" xmlns:xlink="http://www.w3.org/1999/xlink" x="0px" y="0px"
	 viewBox="0 0 202 37.3" style="enable-background:new 0 0 202 37.3;" xml:space="preserve">
<style type="text/css">
	.st0{display:none;}
	.st1{display:inline;}
	.st2{clip-path:url(#SVGID_00000061434257251652118550000016606529246862671769_);fill:#313A48;}
	.st3{clip-path:url(#SVGID_00000021802215293396665540000014262954201727522189_);fill:#313A48;}
	.st4{clip-path:url(#SVGID_00000121253332063001108910000012241645029494311854_);fill:#313A48;}
	.st5{clip-path:url(#SVGID_00000049217232361871191530000017391742480669054874_);fill:#313A48;}
	.st6{clip-path:url(#SVGID_00000014599240128279138900000017093241422500651937_);fill:#313A48;}
	.st7{clip-path:url(#SVGID_00000062164278365945077200000016582938580560096421_);fill:#313A48;}
	.st8{clip-path:url(#SVGID_00000009566477798612140390000000902443631675603886_);fill:#313A48;}
	.st9{clip-path:url(#SVGID_00000059275941854758210040000011218064953873667761_);fill:#313A48;}
	.st10{clip-path:url(#SVGID_00000051350285450986187520000007631041344305794963_);fill:#024ad0;}
	.st11{clip-path:url(#SVGID_00000083076797635296169600000001721191931711774875_);fill:#024ad0;}
	.st12{clip-path:url(#SVGID_00000062909621466736394530000013204005501549558171_);fill:#024ad0;}
	.st13{clip-path:url(#SVGID_00000039843851240014995530000000503329330909215889_);fill:#024ad0;}
	.st14{clip-path:url(#SVGID_00000022544335407440691410000001268940960082506162_);fill:#024ad0;}
	.st15{clip-path:url(#SVGID_00000067928251336239940200000004723776094722078886_);fill:#024ad0;}
	.st16{clip-path:url(#SVGID_00000036240950442005508790000002268200726944927151_);fill:#024ad0;}
	.st17{clip-path:url(#SVGID_00000098924299297361222530000013910540004582346376_);fill:#313A48;}
	.st18{display:inline;fill:#313A48;}
	.st19{display:inline;fill:#024ad0;}
	.st20{fill:#313A48;}
	.st21{fill:#024ad0;}
</style>
<g class="st0">
	<g class="st1">
		<defs>
			<rect id="SVGID_1_" y="0" width="202" height="30"/>
		</defs>
		<clipPath id="SVGID_00000139997517883496272770000017758265022094396848_">
			<use xlink:href="#SVGID_1_"  style="overflow:visible;"/>
		</clipPath>
		<path style="clip-path:url(#SVGID_00000139997517883496272770000017758265022094396848_);fill:#313A48;" d="M115.4,28.8
			c-2.9,0-5.4-1-7.3-2.9c-1.9-2-2.9-4.4-2.9-7.3s1-5.3,2.9-7.3s4.4-2.9,7.3-2.9c1.9,0,3.6,0.5,5.2,1.4c1.5,0.9,2.6,2.2,3.3,3.7
			l-2.1,1.2c-0.5-1.2-1.4-2.1-2.5-2.8s-2.5-1-3.9-1c-2.2,0-4,0.7-5.5,2.2s-2.2,3.3-2.2,5.5s0.7,4,2.2,5.5s3.3,2.2,5.5,2.2
			c1.5,0,2.8-0.3,3.9-1s2-1.6,2.7-2.8l2.1,1.2c-0.8,1.6-2,2.8-3.5,3.7C119,28.4,117.3,28.8,115.4,28.8"/>
	</g>
	<g class="st1">
		<defs>
			<rect id="SVGID_00000137121302656855689180000016867093145101792396_" y="0" width="202" height="30"/>
		</defs>
		<clipPath id="SVGID_00000011752524031674722930000010577153975729798328_">
			<use xlink:href="#SVGID_00000137121302656855689180000016867093145101792396_"  style="overflow:visible;"/>
		</clipPath>
		<path style="clip-path:url(#SVGID_00000011752524031674722930000010577153975729798328_);fill:#313A48;" d="M145.1,8.9h2.6v19.5
			h-2.6v-3.8c-1.8,2.9-4.4,4.3-7.9,4.3c-2.8,0-5.1-1-7.1-3s-2.9-4.4-2.9-7.2c0-2.9,1-5.3,2.9-7.2c2-2,4.3-3,7.1-3
			c3.5,0,6.1,1.4,7.9,4.3V8.9z M131.9,24.1c1.5,1.5,3.3,2.2,5.5,2.2s4-0.7,5.5-2.2s2.2-3.3,2.2-5.5s-0.7-4-2.2-5.5s-3.3-2.2-5.5-2.2
			s-4,0.7-5.5,2.2s-2.2,3.3-2.2,5.5S130.5,22.6,131.9,24.1"/>
	</g>
	<g class="st1">
		<defs>
			<rect id="SVGID_00000044870348139051720370000002570107448278101151_" y="0" width="202" height="30"/>
		</defs>
		<clipPath id="SVGID_00000183242478013633834690000012956615621858252223_">
			<use xlink:href="#SVGID_00000044870348139051720370000002570107448278101151_"  style="overflow:visible;"/>
		</clipPath>
		<path style="clip-path:url(#SVGID_00000183242478013633834690000012956615621858252223_);fill:#313A48;" d="M171.1,8.4
			c2.9,0,5.2,1,7,3.1c1.8,2,2.7,4.4,2.7,7.2c0,0.3,0,0.7-0.1,1.2h-17.1c0.3,2,1.1,3.5,2.5,4.7s3.2,1.7,5.2,1.7
			c1.5,0,2.8-0.3,3.8-0.9c1.1-0.6,1.9-1.4,2.4-2.4l2.3,1.3c-0.9,1.4-2,2.5-3.5,3.3s-3.2,1.2-5.1,1.2c-3.1,0-5.6-1-7.5-2.9
			s-2.9-4.4-2.9-7.3s0.9-5.3,2.8-7.3C165.7,9.4,168.1,8.4,171.1,8.4 M171.1,10.9c-2,0-3.7,0.6-5.1,1.8c-1.4,1.2-2.2,2.8-2.4,4.7
			h14.5c-0.3-2.1-1.1-3.6-2.4-4.8C174.4,11.5,172.9,10.9,171.1,10.9"/>
	</g>
	<g class="st1">
		<defs>
			<rect id="SVGID_00000001649545269344186710000005040653023662586767_" y="0" width="202" height="30"/>
		</defs>
		<clipPath id="SVGID_00000173882458942148822840000005920898456244493184_">
			<use xlink:href="#SVGID_00000001649545269344186710000005040653023662586767_"  style="overflow:visible;"/>
		</clipPath>
		<path style="clip-path:url(#SVGID_00000173882458942148822840000005920898456244493184_);fill:#313A48;" d="M88.3,8.9V4.2l2.6-0.8
			v5.5h5.6v2.5h-5.6v11.8c0,1.1,0.2,1.8,0.6,2.3s1,0.7,1.9,0.7c0.8,0,1.9,0,3.1-0.1v2.3c-2.7,0.4-4.8,0.2-6.1-0.6
			c-1.4-0.8-2-2.3-2-4.6V11.4L88.3,8.9L88.3,8.9z"/>
	</g>
	<g class="st1">
		<defs>
			<rect id="SVGID_00000071528914449433716230000006296703313678599312_" y="0" width="202" height="30"/>
		</defs>
		<clipPath id="SVGID_00000060014102157180843080000014854368748725517974_">
			<use xlink:href="#SVGID_00000071528914449433716230000006296703313678599312_"  style="overflow:visible;"/>
		</clipPath>
		<path style="clip-path:url(#SVGID_00000060014102157180843080000014854368748725517974_);fill:#313A48;" d="M184.4,8.9V4.2
			l2.6-0.8v5.5h5.6v2.5H187v11.8c0,1.1,0.2,1.8,0.6,2.3c0.4,0.5,1,0.7,1.9,0.7c0.8,0,1.9,0,3.1-0.1v2.3c-2.7,0.4-4.8,0.2-6.1-0.6
			c-1.4-0.8-2-2.3-2-4.6V11.4V8.9H184.4z"/>
	</g>
	<g class="st1">
		<defs>
			<rect id="SVGID_00000095313641323208902340000002410624554631831432_" y="0" width="202" height="30"/>
		</defs>
		<clipPath id="SVGID_00000129202146835567101930000012203575939117948801_">
			<use xlink:href="#SVGID_00000095313641323208902340000002410624554631831432_"  style="overflow:visible;"/>
		</clipPath>
		
			<rect x="99.5" y="8.9" style="clip-path:url(#SVGID_00000129202146835567101930000012203575939117948801_);fill:#313A48;" width="2.6" height="19.5"/>
	</g>
	<g class="st1">
		<defs>
			<rect id="SVGID_00000125602830044472956640000012203154326622051224_" y="0" width="202" height="30"/>
		</defs>
		<clipPath id="SVGID_00000005252587481865868570000007213870950840971683_">
			<use xlink:href="#SVGID_00000125602830044472956640000012203154326622051224_"  style="overflow:visible;"/>
		</clipPath>
		
			<rect x="99.5" y="3.5" style="clip-path:url(#SVGID_00000005252587481865868570000007213870950840971683_);fill:#313A48;" width="2.6" height="2.6"/>
	</g>
	<g class="st1">
		<defs>
			<rect id="SVGID_00000094598025231303518540000015234296758352018591_" y="0" width="202" height="30"/>
		</defs>
		<clipPath id="SVGID_00000041986650276673881860000010585504008795922308_">
			<use xlink:href="#SVGID_00000094598025231303518540000015234296758352018591_"  style="overflow:visible;"/>
		</clipPath>
		<path style="clip-path:url(#SVGID_00000041986650276673881860000010585504008795922308_);fill:#313A48;" d="M75.4,8.4
			c2.9,0,5.2,1,7,3.1c1.8,2,2.7,4.4,2.7,7.2c0,0.3,0,0.7-0.1,1.2H67.9c0.3,2,1.1,3.5,2.5,4.7s3.2,1.7,5.2,1.7c1.5,0,2.8-0.3,3.8-0.9
			c1.1-0.6,1.9-1.4,2.4-2.4l2.3,1.3c-0.9,1.4-2,2.5-3.5,3.3s-3.2,1.2-5.1,1.2c-3.1,0-5.6-1-7.5-2.9s-2.9-4.4-2.9-7.3
			s0.9-5.3,2.8-7.3C70,9.4,72.5,8.4,75.4,8.4 M75.4,10.9c-2,0-3.7,0.6-5.1,1.8s-2.2,2.8-2.4,4.7h14.5c-0.3-2.1-1-3.6-2.4-4.8
			C78.8,11.5,77.2,10.9,75.4,10.9"/>
	</g>
	<g class="st1">
		<defs>
			<rect id="SVGID_00000010303798977268201000000001013828620402069683_" y="0" width="202" height="30"/>
		</defs>
		<clipPath id="SVGID_00000155138368642280622560000014505234143617895563_">
			<use xlink:href="#SVGID_00000010303798977268201000000001013828620402069683_"  style="overflow:visible;"/>
		</clipPath>
		<path style="clip-path:url(#SVGID_00000155138368642280622560000014505234143617895563_);fill:#024ad0;" d="M200.8,25.6
			c0,1.5-1.3,2.8-2.8,2.8s-2.8-1.3-2.8-2.8s1.3-2.8,2.8-2.8C199.6,22.8,200.8,24,200.8,25.6"/>
	</g>
	<g class="st1">
		<defs>
			<rect id="SVGID_00000086680192504500926840000014194901831307164316_" y="0" width="202" height="30"/>
		</defs>
		<clipPath id="SVGID_00000101814054233537668250000000454577086034412968_">
			<use xlink:href="#SVGID_00000086680192504500926840000014194901831307164316_"  style="overflow:visible;"/>
		</clipPath>
		
			<rect x="13.7" y="8.9" style="clip-path:url(#SVGID_00000101814054233537668250000000454577086034412968_);fill:#024ad0;" width="5" height="19.5"/>
	</g>
	<g class="st1">
		<defs>
			<rect id="SVGID_00000098194349587042893090000009556308100056228751_" y="0" width="202" height="30"/>
		</defs>
		<clipPath id="SVGID_00000057837801792513352730000003764327703647649942_">
			<use xlink:href="#SVGID_00000098194349587042893090000009556308100056228751_"  style="overflow:visible;"/>
		</clipPath>
		<path style="clip-path:url(#SVGID_00000057837801792513352730000003764327703647649942_);fill:#024ad0;" d="M58.1,25.9
			c-2,2-4.4,3-7.3,3c-2.9,0-5.3-1-7.3-3s-3-4.4-3-7.3s1-5.3,3-7.3s4.4-3,7.3-3c2.9,0,5.3,1,7.3,3s3,4.4,3,7.3S60.1,23.9,58.1,25.9
			 M47,22.5c1,1,2.3,1.5,3.8,1.5s2.8-0.5,3.8-1.5s1.5-2.3,1.5-3.9s-0.5-2.8-1.5-3.9c-1-1-2.3-1.5-3.8-1.5S48,13.7,47,14.7
			s-1.5,2.3-1.5,3.9S46,21.5,47,22.5"/>
	</g>
	<g class="st1">
		<defs>
			<rect id="SVGID_00000084489128651888676520000012751268675058235826_" y="0" width="202" height="30"/>
		</defs>
		<clipPath id="SVGID_00000031893404787758369700000000964195740712750239_">
			<use xlink:href="#SVGID_00000084489128651888676520000012751268675058235826_"  style="overflow:visible;"/>
		</clipPath>
		<path style="clip-path:url(#SVGID_00000031893404787758369700000000964195740712750239_);fill:#024ad0;" d="M10.6,13.7V8.9H6.2
			V3.4h-5v3.5v1.9v4.8v5.1v3c0,3.7,1.8,5.4,3.8,6.1c1.8,0.6,3.6,0.6,4.7,0.5c0.3,0,0.6-0.1,1-0.1v-4.6c-1,0.1-1.8,0.1-2.4,0
			c-0.6,0-1.1-0.2-1.5-0.5c-0.3-0.3-0.5-0.8-0.5-1.5v-8.1h4.3V13.7z"/>
	</g>
	<g class="st1">
		<defs>
			<rect id="SVGID_00000161596637276678644990000000084771917598223248_" y="0" width="202" height="30"/>
		</defs>
		<clipPath id="SVGID_00000176036190968291774050000013954883530934782859_">
			<use xlink:href="#SVGID_00000161596637276678644990000000084771917598223248_"  style="overflow:visible;"/>
		</clipPath>
		<polygon style="clip-path:url(#SVGID_00000176036190968291774050000013954883530934782859_);fill:#024ad0;" points="34.3,8.9 
			26.8,18.5 34.7,28.4 40.5,28.4 32.4,18.5 40.3,8.9 		"/>
	</g>
	<g class="st1">
		<defs>
			<rect id="SVGID_00000052077807484215704750000014366675696852290217_" y="0" width="202" height="30"/>
		</defs>
		<clipPath id="SVGID_00000108276118829788184740000009791607980540469165_">
			<use xlink:href="#SVGID_00000052077807484215704750000014366675696852290217_"  style="overflow:visible;"/>
		</clipPath>
		
			<rect x="21.8" y="1.1" style="clip-path:url(#SVGID_00000108276118829788184740000009791607980540469165_);fill:#024ad0;" width="5" height="27.3"/>
	</g>
	<g class="st1">
		<defs>
			<rect id="SVGID_00000111171232358894083810000011719747521933021338_" y="0" width="202" height="30"/>
		</defs>
		<clipPath id="SVGID_00000174601890653981915760000016898373634838039710_">
			<use xlink:href="#SVGID_00000111171232358894083810000011719747521933021338_"  style="overflow:visible;"/>
		</clipPath>
		<path style="clip-path:url(#SVGID_00000174601890653981915760000016898373634838039710_);fill:#024ad0;" d="M19.3,4.2
			c0,1.7-1.4,3.1-3.1,3.1s-3.1-1.4-3.1-3.1s1.4-3.1,3.1-3.1C17.9,1.1,19.3,2.5,19.3,4.2"/>
	</g>
	<g class="st1">
		<defs>
			<rect id="SVGID_00000178205126998694118560000014024997717019158163_" y="0" width="202" height="30"/>
		</defs>
		<clipPath id="SVGID_00000124872108142926702140000015402862217282544545_">
			<use xlink:href="#SVGID_00000178205126998694118560000014024997717019158163_"  style="overflow:visible;"/>
		</clipPath>
		<path style="clip-path:url(#SVGID_00000124872108142926702140000015402862217282544545_);fill:#313A48;" d="M153.3,10.9
			c1.6-1.5,3-2.1,6.2-2.3v2.5c-1.8,0-3.2,0.5-4.4,1.6c-1.2,1-1.8,2.7-1.8,4.9v10.8h-2.6V8.9h2.6V10.9z"/>
	</g>
</g>
<g class="st0">
	<path class="st18" d="M122.9,9V4.3l2.6-0.8V9h5.6v2.5h-5.6v11.7c0,1.1,0.2,1.8,0.6,2.3s1,0.7,1.9,0.7c0.8,0,1.9,0,3.1-0.1v2.2
		c-2.7,0.4-4.7,0.2-6.1-0.6c-1.4-0.8-2-2.3-2-4.6V11.4V9H122.9z"/>
	<rect x="155.9" y="1.2" class="st18" width="2.6" height="27.1"/>
	<rect x="88.2" y="9" class="st18" width="2.6" height="19.3"/>
	<rect x="88.2" y="3.6" class="st18" width="2.6" height="2.6"/>
	<rect x="117.2" y="9" class="st18" width="2.6" height="19.3"/>
	<rect x="117.2" y="3.6" class="st18" width="2.6" height="2.6"/>
	<path class="st18" d="M150.3,9v2.8c-1.9-2.1-4.6-3.4-7.6-3.4c-5.6,0-10.2,4.6-10.2,10.2s4.6,10.2,10.2,10.2c3,0,5.7-1.3,7.6-3.4
		v2.8h2.6v-8.5v-2.4V9H150.3z M148,24.1c-1.5,1.5-3.3,2.2-5.4,2.2c-2.1,0-3.9-0.7-5.4-2.2s-2.2-3.3-2.2-5.4s0.7-3.9,2.2-5.4
		s3.3-2.2,5.4-2.2c2.1,0,3.9,0.7,5.4,2.2s2.2,3.3,2.2,5.4C150.3,20.8,149.5,22.6,148,24.1"/>
	<path class="st18" d="M85.1,28.3v-8.5v-2.4V1.2h-2.6v10.6C80.7,9.7,78,8.4,75,8.4c-5.6,0-10.2,4.6-10.2,10.2S69.4,28.8,75,28.8
		c3,0,5.7-1.3,7.6-3.4v2.8h2.5V28.3z M82.6,18.6c0,2.1-0.7,4-2.2,5.4c-1.5,1.5-3.3,2.2-5.4,2.2s-3.9-0.7-5.4-2.2s-2.2-3.3-2.2-5.4
		s0.7-3.9,2.2-5.4C71,11.7,72.8,11,75,11c2.1,0,3.9,0.7,5.4,2.2S82.6,16.5,82.6,18.6"/>
	<path class="st18" d="M114.1,9h-2.6v2.8c-1.9-2.1-4.6-3.4-7.6-3.4c-1.1,0-2.1,0.2-3,0.5c-1.6,0.5-3,1.3-4.3,2.6
		c-1.9,2-2.9,4.4-2.9,7.2s1,5.2,2.9,7.2c1.2,1.3,2.7,2.1,4.2,2.6c1,0.3,2,0.5,3,0.5c3,0,5.7-1.3,7.6-3.4v2.1c0,2-0.6,3.6-1.9,4.7
		c-1.3,1.2-3,1.8-5.2,1.8c-3.5,0-5.8-1.2-6.9-3.5L95.2,32c1.6,3.1,4.6,4.7,9.2,4.7c2.7,0,4.9-0.8,6.8-2.4c1.9-1.6,2.9-3.8,2.9-6.6
		v-2.1l0,0V20v-2.4V9L114.1,9z M110.7,22.3c-0.3,0.6-0.8,1.2-1.3,1.7c-0.7,0.7-1.6,1.3-2.5,1.7c-0.9,0.4-1.9,0.6-3,0.6
		c-2.1,0-3.9-0.7-5.4-2.2c0,0,0,0-0.1-0.1c-1.4-1.5-2.1-3.3-2.1-5.4c0-1.3,0.3-2.5,0.8-3.6c0.3-0.7,0.8-1.3,1.4-1.8
		c0.2-0.2,0.3-0.3,0.5-0.5c1-0.8,2.1-1.4,3.3-1.6c0.5-0.1,1-0.1,1.5-0.1c2.1,0,3.9,0.7,5.4,2.2s2.2,3.3,2.2,5.4
		C111.6,20,111.3,21.2,110.7,22.3L110.7,22.3"/>
	<path class="st19" d="M168.1,25.5c0,1.5-1.2,2.8-2.8,2.8c-1.5,0-2.8-1.2-2.8-2.8c0-1.5,1.2-2.8,2.8-2.8
		C166.9,22.7,168.1,24,168.1,25.5"/>
	<rect x="13.6" y="9" class="st19" width="5" height="19.3"/>
	<path class="st19" d="M57.7,25.9c-2,2-4.4,3-7.3,3c-2.9,0-5.3-1-7.2-3c-2-2-3-4.4-3-7.2c0-2.9,1-5.3,3-7.2c2-2,4.4-3,7.2-3
		c2.9,0,5.3,1,7.3,3s3,4.4,3,7.2S59.7,23.9,57.7,25.9 M46.7,22.4c1,1,2.2,1.5,3.7,1.5s2.7-0.5,3.8-1.5c1-1,1.5-2.3,1.5-3.8
		s-0.5-2.8-1.5-3.8s-2.3-1.5-3.8-1.5s-2.7,0.5-3.7,1.5s-1.5,2.3-1.5,3.8S45.7,21.4,46.7,22.4"/>
	<path class="st19" d="M10.5,13.7V9H6.1V3.5h-5V7v2v4.8v5v3c0,3.6,1.8,5.3,3.8,6.1c1.8,0.5,3.6,0.6,4.6,0.5c0.3,0,0.6-0.1,0.9-0.1
		v-4.5c-1,0.1-1.8,0.1-2.4,0c-0.6,0-1.1-0.2-1.5-0.5C6.2,23,6,22.5,6,21.8v-8L10.5,13.7L10.5,13.7z"/>
	<polygon class="st19" points="34,9 26.6,18.5 34.4,28.3 40.2,28.3 32.2,18.5 40,9 	"/>
	<rect x="21.6" y="1.2" class="st19" width="5" height="27.1"/>
	<path class="st19" d="M19.2,4.3c0,1.7-1.4,3.1-3.1,3.1C14.3,7.4,13,6,13,4.3s1.4-3.1,3.1-3.1C17.8,1.2,19.2,2.6,19.2,4.3"/>
</g>
<g>
	<path class="st20" d="M75.5,8.4c2.9,0,5.2,1,7,3.1c1.8,2,2.7,4.4,2.7,7.2c0,0.3,0,0.7-0.1,1.2H68c0.3,2,1.1,3.5,2.5,4.7
		c1.4,1.2,3.2,1.7,5.2,1.7c1.5,0,2.8-0.3,3.8-0.9c1.1-0.6,1.9-1.4,2.4-2.4l2.3,1.3c-0.9,1.4-2,2.5-3.5,3.3c-1.5,0.8-3.2,1.2-5.1,1.2
		c-3.1,0-5.6-1-7.5-2.9c-1.9-1.9-2.9-4.4-2.9-7.3c0-2.9,0.9-5.3,2.8-7.3C70.1,9.4,72.5,8.4,75.5,8.4z M75.5,10.9
		c-2,0-3.7,0.6-5.1,1.8c-1.4,1.2-2.2,2.8-2.4,4.7h14.5c-0.3-2.1-1.1-3.6-2.4-4.8C78.8,11.5,77.3,10.9,75.5,10.9z"/>
	<path class="st20" d="M114.4,10.9c1.6-1.5,3-2.1,6.2-2.3V11c-1.8,0-3.2,0.5-4.4,1.6c-1.2,1-1.8,2.7-1.8,4.9v10.8h-2.6V8.9h2.6V10.9
		z"/>
	<path class="st20" d="M125.3,13.9c0,0.9,0.4,1.6,1.2,2.1c0.8,0.5,1.7,0.9,2.9,1.2c1.1,0.3,2.2,0.6,3.3,1c1.1,0.3,2.1,0.9,2.8,1.7
		c0.8,0.8,1.2,1.9,1.2,3.3c0,1.7-0.7,3-2,4.1c-1.3,1-3,1.6-5.1,1.6c-1.9,0-3.5-0.4-4.8-1.2c-1.3-0.8-2.2-1.9-2.7-3.2l2.2-1.3
		c0.4,1,1,1.8,2,2.4c0.9,0.6,2.1,0.9,3.4,0.9c1.3,0,2.3-0.3,3.2-0.8c0.9-0.5,1.3-1.3,1.3-2.4c0-0.9-0.4-1.6-1.2-2.1
		c-0.8-0.5-1.7-0.9-2.8-1.3c-1.1-0.3-2.2-0.6-3.3-1c-1.1-0.3-2.1-0.9-2.8-1.7c-0.8-0.8-1.2-1.9-1.2-3.2c0-1.6,0.6-2.9,1.9-4
		c1.3-1.1,2.8-1.6,4.8-1.6c1.6,0,3,0.4,4.2,1.1c1.2,0.7,2.1,1.7,2.6,2.9l-2.1,1.2c-0.8-1.8-2.3-2.7-4.7-2.7c-1.1,0-2.1,0.3-2.9,0.8
		C125.7,12.2,125.3,12.9,125.3,13.9z"/>
	<path class="st20" d="M138.8,28.3V8.9h2.6v19.5H138.8z"/>
	<path class="st20" d="M159.9,8.9h2.7l-8,19.5h-3.1l-8-19.5h2.7l6.8,16.7L159.9,8.9z"/>
	<circle class="st21" cx="165.4" cy="25.5" r="2.8"/>
	<rect x="138.8" y="3.5" class="st20" width="2.6" height="2.6"/>
	
		<rect x="128.1" y="31.6" transform="matrix(-1 -1.224647e-16 1.224647e-16 -1 258.726 65.7494)" class="st20" width="2.6" height="2.6"/>
	<g>
		<path class="st21" d="M13.7,28.3V8.9h5v19.5H13.7z"/>
		<path class="st21" d="M58.2,25.9c-2,2-4.4,3-7.3,3c-2.9,0-5.3-1-7.3-3c-2-2-3-4.4-3-7.3c0-2.9,1-5.3,3-7.3c2-2,4.4-3,7.3-3
			c2.9,0,5.3,1,7.3,3s3,4.4,3,7.3C61.2,21.5,60.2,23.9,58.2,25.9z M47.1,22.5c1,1,2.3,1.5,3.8,1.5c1.5,0,2.8-0.5,3.8-1.5
			c1-1,1.5-2.3,1.5-3.9c0-1.6-0.5-2.8-1.5-3.9c-1-1-2.3-1.5-3.8-1.5c-1.5,0-2.8,0.5-3.8,1.5c-1,1-1.5,2.3-1.5,3.9
			C45.6,20.2,46.1,21.4,47.1,22.5z"/>
		<path class="st21" d="M10.6,13.7V8.9H6.2V3.4h-5v3.5v1.9v4.8v5.1v3c0,3.7,1.8,5.4,3.8,6.1c1.8,0.6,3.6,0.6,4.7,0.5
			c0.3,0,0.6-0.1,1-0.1v-4.6c-1,0.1-1.8,0.1-2.4,0c-0.6,0-1.1-0.2-1.5-0.5c-0.3-0.3-0.5-0.8-0.5-1.5v-8.1H10.6z"/>
		<polygon class="st21" points="34.3,8.9 26.8,18.5 34.7,28.3 40.5,28.3 32.5,18.5 40.3,8.9 		"/>
		<rect x="21.8" y="1.1" class="st21" width="5" height="27.3"/>
		<circle class="st21" cx="16.2" cy="4.2" r="3.1"/>
	</g>
	<path class="st20" d="M106.1,8.9v2.9c-1.9-2.1-4.6-3.4-7.6-3.4c-5.7,0-10.3,4.6-10.3,10.3c0,5.7,4.6,10.3,10.3,10.3
		c3,0,5.8-1.3,7.6-3.4v2.9h2.6v-8.5v-2.4V8.9H106.1z M103.9,24.1c-1.5,1.5-3.3,2.2-5.5,2.2c-2.2,0-4-0.7-5.5-2.2
		c-1.5-1.5-2.2-3.3-2.2-5.5s0.7-4,2.2-5.5c1.5-1.5,3.3-2.2,5.5-2.2c2.2,0,4,0.7,5.5,2.2c1.5,1.5,2.2,3.3,2.2,5.5
		S105.4,22.6,103.9,24.1z"/>
</g>
</svg>
