<?xml version="1.0" encoding="utf-8"?>
<!-- Generator: Adobe Illustrator 27.2.0, SVG Export Plug-In . SVG Version: 6.00 Build 0)  -->
<svg version="1.1" id="katman_1" xmlns="http://www.w3.org/2000/svg" xmlns:xlink="http://www.w3.org/1999/xlink" x="0px" y="0px"
	 viewBox="0 0 171.5 37.3" style="enable-background:new 0 0 171.5 37.3;" xml:space="preserve">
<style type="text/css">
	.st0{display:none;}
	.st1{display:inline;}
	.st2{clip-path:url(#SVGID_00000005250456666570552060000008711604689230634643_);fill:#313A48;}
	.st3{clip-path:url(#SVGID_00000056391503726602203010000016954940883905570745_);fill:#313A48;}
	.st4{clip-path:url(#SVGID_00000085243967379253279650000007181485256724296330_);fill:#313A48;}
	.st5{clip-path:url(#SVGID_00000049918813087252602140000012063546565108613259_);fill:#313A48;}
	.st6{clip-path:url(#SVGID_00000123411299491407418190000008516744801276354982_);fill:#313A48;}
	.st7{clip-path:url(#SVGID_00000170279753915511828890000006044484788326083204_);fill:#313A48;}
	.st8{clip-path:url(#SVGID_00000158003215062953331390000006020426525467823547_);fill:#313A48;}
	.st9{clip-path:url(#SVGID_00000137834344287261827450000011870653716171353781_);fill:#313A48;}
	.st10{clip-path:url(#SVGID_00000181070688073495588790000013346733207274299824_);fill:#174AFB;}
	.st11{clip-path:url(#SVGID_00000099658639569023097040000011699505729754047652_);fill:#174AFB;}
	.st12{clip-path:url(#SVGID_00000071531960161880339700000001274094219462891177_);fill:#174AFB;}
	.st13{clip-path:url(#SVGID_00000153680508992615273510000003582602256461550515_);fill:#174AFB;}
	.st14{clip-path:url(#SVGID_00000031194741502276157950000006457963522315282592_);fill:#174AFB;}
	.st15{clip-path:url(#SVGID_00000173852828561494914370000003868297201863269567_);fill:#174AFB;}
	.st16{clip-path:url(#SVGID_00000088835899880630878440000016096904954759632260_);fill:#174AFB;}
	.st17{clip-path:url(#SVGID_00000075873044212854932080000008382024227900043139_);fill:#313A48;}
	.st18{display:inline;fill:#313A48;}
	.st19{display:inline;fill:#174AFB;}
	.st20{fill:#FFFFFF;}
</style>
<g class="st0">
	<g class="st1">
		<defs>
			<rect id="SVGID_1_" y="0" width="202" height="30"/>
		</defs>
		<clipPath id="SVGID_00000170962425224978695200000015540998077219865502_">
			<use xlink:href="#SVGID_1_"  style="overflow:visible;"/>
		</clipPath>
		<path style="clip-path:url(#SVGID_00000170962425224978695200000015540998077219865502_);fill:#313A48;" d="M115.4,28.8
			c-2.9,0-5.4-1-7.3-2.9c-1.9-2-2.9-4.4-2.9-7.3s1-5.3,2.9-7.3s4.4-2.9,7.3-2.9c1.9,0,3.6,0.5,5.2,1.4c1.5,0.9,2.6,2.2,3.3,3.7
			l-2.1,1.2c-0.5-1.2-1.4-2.1-2.5-2.8s-2.5-1-3.9-1c-2.2,0-4,0.7-5.5,2.2s-2.2,3.3-2.2,5.5s0.7,4,2.2,5.5s3.3,2.2,5.5,2.2
			c1.5,0,2.8-0.3,3.9-1s2-1.6,2.7-2.8l2.1,1.2c-0.8,1.6-2,2.8-3.5,3.7C119,28.4,117.3,28.8,115.4,28.8"/>
	</g>
	<g class="st1">
		<defs>
			<rect id="SVGID_00000119103847553440007570000005453054364790857655_" y="0" width="202" height="30"/>
		</defs>
		<clipPath id="SVGID_00000062165060875492390550000015366369326925447569_">
			<use xlink:href="#SVGID_00000119103847553440007570000005453054364790857655_"  style="overflow:visible;"/>
		</clipPath>
		<path style="clip-path:url(#SVGID_00000062165060875492390550000015366369326925447569_);fill:#313A48;" d="M145.1,8.9h2.6v19.5
			h-2.6v-3.8c-1.8,2.9-4.4,4.3-7.9,4.3c-2.8,0-5.1-1-7.1-3s-2.9-4.4-2.9-7.2c0-2.9,1-5.3,2.9-7.2c2-2,4.3-3,7.1-3
			c3.5,0,6.1,1.4,7.9,4.3V8.9z M131.9,24.1c1.5,1.5,3.3,2.2,5.5,2.2s4-0.7,5.5-2.2s2.2-3.3,2.2-5.5s-0.7-4-2.2-5.5s-3.3-2.2-5.5-2.2
			s-4,0.7-5.5,2.2s-2.2,3.3-2.2,5.5S130.5,22.6,131.9,24.1"/>
	</g>
	<g class="st1">
		<defs>
			<rect id="SVGID_00000067231411535739088090000007047426523379686576_" y="0" width="202" height="30"/>
		</defs>
		<clipPath id="SVGID_00000170270548054210025650000015726750511338001854_">
			<use xlink:href="#SVGID_00000067231411535739088090000007047426523379686576_"  style="overflow:visible;"/>
		</clipPath>
		<path style="clip-path:url(#SVGID_00000170270548054210025650000015726750511338001854_);fill:#313A48;" d="M171.1,8.4
			c2.9,0,5.2,1,7,3.1c1.8,2,2.7,4.4,2.7,7.2c0,0.3,0,0.7-0.1,1.2h-17.1c0.3,2,1.1,3.5,2.5,4.7s3.2,1.7,5.2,1.7
			c1.5,0,2.8-0.3,3.8-0.9c1.1-0.6,1.9-1.4,2.4-2.4l2.3,1.3c-0.9,1.4-2,2.5-3.5,3.3s-3.2,1.2-5.1,1.2c-3.1,0-5.6-1-7.5-2.9
			s-2.9-4.4-2.9-7.3s0.9-5.3,2.8-7.3C165.7,9.4,168.1,8.4,171.1,8.4 M171.1,10.9c-2,0-3.7,0.6-5.1,1.8c-1.4,1.2-2.2,2.8-2.4,4.7
			h14.5c-0.3-2.1-1.1-3.6-2.4-4.8C174.4,11.5,172.9,10.9,171.1,10.9"/>
	</g>
	<g class="st1">
		<defs>
			<rect id="SVGID_00000134218417055307156720000014154811269216128699_" y="0" width="202" height="30"/>
		</defs>
		<clipPath id="SVGID_00000173120624301058104200000016246571573459759513_">
			<use xlink:href="#SVGID_00000134218417055307156720000014154811269216128699_"  style="overflow:visible;"/>
		</clipPath>
		<path style="clip-path:url(#SVGID_00000173120624301058104200000016246571573459759513_);fill:#313A48;" d="M88.3,8.9V4.2l2.6-0.8
			v5.5h5.6v2.5h-5.6v11.8c0,1.1,0.2,1.8,0.6,2.3s1,0.7,1.9,0.7c0.8,0,1.9,0,3.1-0.1v2.3c-2.7,0.4-4.8,0.2-6.1-0.6
			c-1.4-0.8-2-2.3-2-4.6V11.4L88.3,8.9L88.3,8.9z"/>
	</g>
	<g class="st1">
		<defs>
			<rect id="SVGID_00000061462546087765741270000010623114561856699787_" y="0" width="202" height="30"/>
		</defs>
		<clipPath id="SVGID_00000137118803451466040140000005862166053042791847_">
			<use xlink:href="#SVGID_00000061462546087765741270000010623114561856699787_"  style="overflow:visible;"/>
		</clipPath>
		<path style="clip-path:url(#SVGID_00000137118803451466040140000005862166053042791847_);fill:#313A48;" d="M184.4,8.9V4.2
			l2.6-0.8v5.5h5.6v2.5H187v11.8c0,1.1,0.2,1.8,0.6,2.3c0.4,0.5,1,0.7,1.9,0.7c0.8,0,1.9,0,3.1-0.1v2.3c-2.7,0.4-4.8,0.2-6.1-0.6
			c-1.4-0.8-2-2.3-2-4.6V11.4V8.9H184.4z"/>
	</g>
	<g class="st1">
		<defs>
			<rect id="SVGID_00000112631316013923122430000012590764303663114657_" y="0" width="202" height="30"/>
		</defs>
		<clipPath id="SVGID_00000044144719434724343150000017787525625528378555_">
			<use xlink:href="#SVGID_00000112631316013923122430000012590764303663114657_"  style="overflow:visible;"/>
		</clipPath>
		
			<rect x="99.5" y="8.9" style="clip-path:url(#SVGID_00000044144719434724343150000017787525625528378555_);fill:#313A48;" width="2.6" height="19.5"/>
	</g>
	<g class="st1">
		<defs>
			<rect id="SVGID_00000142136722793621033030000016875090339779777722_" y="0" width="202" height="30"/>
		</defs>
		<clipPath id="SVGID_00000022521991889243136760000010190367561227045510_">
			<use xlink:href="#SVGID_00000142136722793621033030000016875090339779777722_"  style="overflow:visible;"/>
		</clipPath>
		
			<rect x="99.5" y="3.5" style="clip-path:url(#SVGID_00000022521991889243136760000010190367561227045510_);fill:#313A48;" width="2.6" height="2.6"/>
	</g>
	<g class="st1">
		<defs>
			<rect id="SVGID_00000083767182602593385310000010856886876213206686_" y="0" width="202" height="30"/>
		</defs>
		<clipPath id="SVGID_00000111153763824477660840000013315092426019205004_">
			<use xlink:href="#SVGID_00000083767182602593385310000010856886876213206686_"  style="overflow:visible;"/>
		</clipPath>
		<path style="clip-path:url(#SVGID_00000111153763824477660840000013315092426019205004_);fill:#313A48;" d="M75.4,8.4
			c2.9,0,5.2,1,7,3.1c1.8,2,2.7,4.4,2.7,7.2c0,0.3,0,0.7-0.1,1.2H67.9c0.3,2,1.1,3.5,2.5,4.7s3.2,1.7,5.2,1.7c1.5,0,2.8-0.3,3.8-0.9
			c1.1-0.6,1.9-1.4,2.4-2.4l2.3,1.3c-0.9,1.4-2,2.5-3.5,3.3s-3.2,1.2-5.1,1.2c-3.1,0-5.6-1-7.5-2.9s-2.9-4.4-2.9-7.3
			s0.9-5.3,2.8-7.3C70,9.4,72.5,8.4,75.4,8.4 M75.4,10.9c-2,0-3.7,0.6-5.1,1.8s-2.2,2.8-2.4,4.7h14.5c-0.3-2.1-1-3.6-2.4-4.8
			C78.8,11.5,77.2,10.9,75.4,10.9"/>
	</g>
	<g class="st1">
		<defs>
			<rect id="SVGID_00000055695299049794865660000011726279978253351834_" y="0" width="202" height="30"/>
		</defs>
		<clipPath id="SVGID_00000007396093952423082440000000255295473882800538_">
			<use xlink:href="#SVGID_00000055695299049794865660000011726279978253351834_"  style="overflow:visible;"/>
		</clipPath>
		<path style="clip-path:url(#SVGID_00000007396093952423082440000000255295473882800538_);fill:#174AFB;" d="M200.8,25.6
			c0,1.5-1.3,2.8-2.8,2.8s-2.8-1.3-2.8-2.8s1.3-2.8,2.8-2.8C199.6,22.8,200.8,24,200.8,25.6"/>
	</g>
	<g class="st1">
		<defs>
			<rect id="SVGID_00000022548212215719803370000001624733644247369888_" y="0" width="202" height="30"/>
		</defs>
		<clipPath id="SVGID_00000116944093926039045270000006846592332740321431_">
			<use xlink:href="#SVGID_00000022548212215719803370000001624733644247369888_"  style="overflow:visible;"/>
		</clipPath>
		
			<rect x="13.7" y="8.9" style="clip-path:url(#SVGID_00000116944093926039045270000006846592332740321431_);fill:#174AFB;" width="5" height="19.5"/>
	</g>
	<g class="st1">
		<defs>
			<rect id="SVGID_00000084514485048147250010000007384507423418105246_" y="0" width="202" height="30"/>
		</defs>
		<clipPath id="SVGID_00000140002390148984891210000005424700385090154626_">
			<use xlink:href="#SVGID_00000084514485048147250010000007384507423418105246_"  style="overflow:visible;"/>
		</clipPath>
		<path style="clip-path:url(#SVGID_00000140002390148984891210000005424700385090154626_);fill:#174AFB;" d="M58.1,25.9
			c-2,2-4.4,3-7.3,3c-2.9,0-5.3-1-7.3-3s-3-4.4-3-7.3s1-5.3,3-7.3s4.4-3,7.3-3c2.9,0,5.3,1,7.3,3s3,4.4,3,7.3S60.1,23.9,58.1,25.9
			 M47,22.5c1,1,2.3,1.5,3.8,1.5s2.8-0.5,3.8-1.5s1.5-2.3,1.5-3.9s-0.5-2.8-1.5-3.9c-1-1-2.3-1.5-3.8-1.5S48,13.7,47,14.7
			s-1.5,2.3-1.5,3.9S46,21.5,47,22.5"/>
	</g>
	<g class="st1">
		<defs>
			<rect id="SVGID_00000157290943500493612600000005141741944213451154_" y="0" width="202" height="30"/>
		</defs>
		<clipPath id="SVGID_00000153703833307085637390000015065343351039823511_">
			<use xlink:href="#SVGID_00000157290943500493612600000005141741944213451154_"  style="overflow:visible;"/>
		</clipPath>
		<path style="clip-path:url(#SVGID_00000153703833307085637390000015065343351039823511_);fill:#174AFB;" d="M10.6,13.7V8.9H6.2
			V3.4h-5v3.5v1.9v4.8v5.1v3c0,3.7,1.8,5.4,3.8,6.1c1.8,0.6,3.6,0.6,4.7,0.5c0.3,0,0.6-0.1,1-0.1v-4.6c-1,0.1-1.8,0.1-2.4,0
			c-0.6,0-1.1-0.2-1.5-0.5c-0.3-0.3-0.5-0.8-0.5-1.5v-8.1h4.3V13.7z"/>
	</g>
	<g class="st1">
		<defs>
			<rect id="SVGID_00000005974824198437386710000012057346728493471882_" y="0" width="202" height="30"/>
		</defs>
		<clipPath id="SVGID_00000004545000114813345760000006625060526131504824_">
			<use xlink:href="#SVGID_00000005974824198437386710000012057346728493471882_"  style="overflow:visible;"/>
		</clipPath>
		<polygon style="clip-path:url(#SVGID_00000004545000114813345760000006625060526131504824_);fill:#174AFB;" points="34.3,8.9 
			26.8,18.5 34.7,28.4 40.5,28.4 32.4,18.5 40.3,8.9 		"/>
	</g>
	<g class="st1">
		<defs>
			<rect id="SVGID_00000160174992750292149430000010051226341514601378_" y="0" width="202" height="30"/>
		</defs>
		<clipPath id="SVGID_00000005969929712700345070000014481508350925862329_">
			<use xlink:href="#SVGID_00000160174992750292149430000010051226341514601378_"  style="overflow:visible;"/>
		</clipPath>
		
			<rect x="21.8" y="1.1" style="clip-path:url(#SVGID_00000005969929712700345070000014481508350925862329_);fill:#174AFB;" width="5" height="27.3"/>
	</g>
	<g class="st1">
		<defs>
			<rect id="SVGID_00000075141574533318312010000008500711038507828382_" y="0" width="202" height="30"/>
		</defs>
		<clipPath id="SVGID_00000101825018223608892370000007461847135834255289_">
			<use xlink:href="#SVGID_00000075141574533318312010000008500711038507828382_"  style="overflow:visible;"/>
		</clipPath>
		<path style="clip-path:url(#SVGID_00000101825018223608892370000007461847135834255289_);fill:#174AFB;" d="M19.3,4.2
			c0,1.7-1.4,3.1-3.1,3.1s-3.1-1.4-3.1-3.1s1.4-3.1,3.1-3.1C17.9,1.1,19.3,2.5,19.3,4.2"/>
	</g>
	<g class="st1">
		<defs>
			<rect id="SVGID_00000163790873261811675300000001325190884597812627_" y="0" width="202" height="30"/>
		</defs>
		<clipPath id="SVGID_00000031165929092262082050000010630551513941578376_">
			<use xlink:href="#SVGID_00000163790873261811675300000001325190884597812627_"  style="overflow:visible;"/>
		</clipPath>
		<path style="clip-path:url(#SVGID_00000031165929092262082050000010630551513941578376_);fill:#313A48;" d="M153.3,10.9
			c1.6-1.5,3-2.1,6.2-2.3v2.5c-1.8,0-3.2,0.5-4.4,1.6c-1.2,1-1.8,2.7-1.8,4.9v10.8h-2.6V8.9h2.6V10.9z"/>
	</g>
</g>
<g class="st0">
	<path class="st18" d="M122.9,9V4.3l2.6-0.8V9h5.6v2.5h-5.6v11.7c0,1.1,0.2,1.8,0.6,2.3s1,0.7,1.9,0.7c0.8,0,1.9,0,3.1-0.1v2.2
		c-2.7,0.4-4.7,0.2-6.1-0.6c-1.4-0.8-2-2.3-2-4.6V11.4V9H122.9z"/>
	<rect x="155.9" y="1.2" class="st18" width="2.6" height="27.1"/>
	<rect x="88.2" y="9" class="st18" width="2.6" height="19.3"/>
	<rect x="88.2" y="3.6" class="st18" width="2.6" height="2.6"/>
	<rect x="117.2" y="9" class="st18" width="2.6" height="19.3"/>
	<rect x="117.2" y="3.6" class="st18" width="2.6" height="2.6"/>
	<path class="st18" d="M150.3,9v2.8c-1.9-2.1-4.6-3.4-7.6-3.4c-5.6,0-10.2,4.6-10.2,10.2s4.6,10.2,10.2,10.2c3,0,5.7-1.3,7.6-3.4
		v2.8h2.6v-8.5v-2.4V9H150.3z M148,24.1c-1.5,1.5-3.3,2.2-5.4,2.2c-2.1,0-3.9-0.7-5.4-2.2s-2.2-3.3-2.2-5.4s0.7-3.9,2.2-5.4
		s3.3-2.2,5.4-2.2c2.1,0,3.9,0.7,5.4,2.2s2.2,3.3,2.2,5.4C150.3,20.8,149.5,22.6,148,24.1"/>
	<path class="st18" d="M85.1,28.3v-8.5v-2.4V1.2h-2.6v10.6C80.7,9.7,78,8.4,75,8.4c-5.6,0-10.2,4.6-10.2,10.2S69.4,28.8,75,28.8
		c3,0,5.7-1.3,7.6-3.4v2.8h2.5V28.3z M82.6,18.6c0,2.1-0.7,4-2.2,5.4c-1.5,1.5-3.3,2.2-5.4,2.2s-3.9-0.7-5.4-2.2s-2.2-3.3-2.2-5.4
		s0.7-3.9,2.2-5.4C71,11.7,72.8,11,75,11c2.1,0,3.9,0.7,5.4,2.2S82.6,16.5,82.6,18.6"/>
	<path class="st18" d="M114.1,9h-2.6v2.8c-1.9-2.1-4.6-3.4-7.6-3.4c-1.1,0-2.1,0.2-3,0.5c-1.6,0.5-3,1.3-4.3,2.6
		c-1.9,2-2.9,4.4-2.9,7.2s1,5.2,2.9,7.2c1.2,1.3,2.7,2.1,4.2,2.6c1,0.3,2,0.5,3,0.5c3,0,5.7-1.3,7.6-3.4v2.1c0,2-0.6,3.6-1.9,4.7
		c-1.3,1.2-3,1.8-5.2,1.8c-3.5,0-5.8-1.2-6.9-3.5L95.2,32c1.6,3.1,4.6,4.7,9.2,4.7c2.7,0,4.9-0.8,6.8-2.4c1.9-1.6,2.9-3.8,2.9-6.6
		v-2.1l0,0V20v-2.4V9L114.1,9z M110.7,22.3c-0.3,0.6-0.8,1.2-1.3,1.7c-0.7,0.7-1.6,1.3-2.5,1.7c-0.9,0.4-1.9,0.6-3,0.6
		c-2.1,0-3.9-0.7-5.4-2.2c0,0,0,0-0.1-0.1c-1.4-1.5-2.1-3.3-2.1-5.4c0-1.3,0.3-2.5,0.8-3.6c0.3-0.7,0.8-1.3,1.4-1.8
		c0.2-0.2,0.3-0.3,0.5-0.5c1-0.8,2.1-1.4,3.3-1.6c0.5-0.1,1-0.1,1.5-0.1c2.1,0,3.9,0.7,5.4,2.2s2.2,3.3,2.2,5.4
		C111.6,20,111.3,21.2,110.7,22.3L110.7,22.3"/>
	<path class="st19" d="M168.1,25.5c0,1.5-1.2,2.8-2.8,2.8c-1.5,0-2.8-1.2-2.8-2.8c0-1.5,1.2-2.8,2.8-2.8
		C166.9,22.7,168.1,24,168.1,25.5"/>
	<rect x="13.6" y="9" class="st19" width="5" height="19.3"/>
	<path class="st19" d="M57.7,25.9c-2,2-4.4,3-7.3,3c-2.9,0-5.3-1-7.2-3c-2-2-3-4.4-3-7.2c0-2.9,1-5.3,3-7.2c2-2,4.4-3,7.2-3
		c2.9,0,5.3,1,7.3,3s3,4.4,3,7.2S59.7,23.9,57.7,25.9 M46.7,22.4c1,1,2.2,1.5,3.7,1.5s2.7-0.5,3.8-1.5c1-1,1.5-2.3,1.5-3.8
		s-0.5-2.8-1.5-3.8s-2.3-1.5-3.8-1.5s-2.7,0.5-3.7,1.5s-1.5,2.3-1.5,3.8S45.7,21.4,46.7,22.4"/>
	<path class="st19" d="M10.5,13.7V9H6.1V3.5h-5V7v2v4.8v5v3c0,3.6,1.8,5.3,3.8,6.1c1.8,0.5,3.6,0.6,4.6,0.5c0.3,0,0.6-0.1,0.9-0.1
		v-4.5c-1,0.1-1.8,0.1-2.4,0c-0.6,0-1.1-0.2-1.5-0.5C6.2,23,6,22.5,6,21.8v-8L10.5,13.7L10.5,13.7z"/>
	<polygon class="st19" points="34,9 26.6,18.5 34.4,28.3 40.2,28.3 32.2,18.5 40,9 	"/>
	<rect x="21.6" y="1.2" class="st19" width="5" height="27.1"/>
	<path class="st19" d="M19.2,4.3c0,1.7-1.4,3.1-3.1,3.1C14.3,7.4,13,6,13,4.3s1.4-3.1,3.1-3.1C17.8,1.2,19.2,2.6,19.2,4.3"/>
</g>
<g>
	<circle class="st20" cx="167.4" cy="25.4" r="2.8"/>
	<g>
		<path class="st20" d="M13.7,28.2V8.8h5v19.5H13.7z"/>
		<path class="st20" d="M58.2,25.8c-2,2-4.4,3-7.3,3c-2.9,0-5.3-1-7.3-3c-2-2-3-4.4-3-7.3c0-2.9,1-5.3,3-7.3c2-2,4.4-3,7.3-3
			c2.9,0,5.3,1,7.3,3s3,4.4,3,7.3C61.2,21.4,60.2,23.8,58.2,25.8z M47.1,22.4c1,1,2.3,1.5,3.8,1.5c1.5,0,2.8-0.5,3.8-1.5
			c1-1,1.5-2.3,1.5-3.9c0-1.6-0.5-2.8-1.5-3.9c-1-1-2.3-1.5-3.8-1.5c-1.5,0-2.8,0.5-3.8,1.5c-1,1-1.5,2.3-1.5,3.9
			C45.6,20.1,46.1,21.4,47.1,22.4z"/>
		<path class="st20" d="M10.6,13.6V8.8H6.2V3.3h-5v3.5v1.9v4.8v5.1v3c0,3.7,1.8,5.4,3.8,6.1c1.8,0.6,3.6,0.6,4.7,0.5
			c0.3,0,0.6-0.1,1-0.1v-4.6c-1,0.1-1.8,0.1-2.4,0c-0.6,0-1.1-0.2-1.5-0.5c-0.3-0.3-0.5-0.8-0.5-1.5v-8.1H10.6z"/>
		<polygon class="st20" points="34.3,8.8 26.8,18.4 34.7,28.2 40.6,28.2 32.5,18.4 40.3,8.8 		"/>
		<rect x="21.8" y="1" class="st20" width="5" height="27.3"/>
		<circle class="st20" cx="16.2" cy="4.1" r="3.1"/>
	</g>
	<g>
		<path class="st20" d="M124.1,8.3c2.3,0,4.2,0.7,5.6,2.2c1.4,1.4,2.1,3.4,2.1,5.8v12h-2.6v-12c0-1.7-0.5-3.1-1.4-4.1
			s-2.2-1.4-3.9-1.4c-2,0-3.5,0.6-4.6,1.8c-1.1,1.2-1.7,3-1.7,5.4v10.2H115V8.8h2.6v3C119,9.5,121.2,8.3,124.1,8.3z"/>
		<path class="st20" d="M145.7,8.3c2.9,0,5.2,1,7,3.1c1.8,2,2.7,4.4,2.7,7.2c0,0.1,0,0.5-0.1,1.2h-17.1c0.3,2,1.1,3.5,2.5,4.7
			s3.2,1.8,5.3,1.8c3,0,5.1-1.1,6.3-3.3l2.3,1.3c-0.9,1.4-2,2.5-3.5,3.3s-3.2,1.2-5.1,1.2c-3.1,0-5.6-1-7.5-2.9
			c-1.9-1.9-2.9-4.4-2.9-7.3c0-2.9,0.9-5.4,2.8-7.3C140.3,9.3,142.7,8.3,145.7,8.3z M145.7,10.8c-2,0-3.7,0.6-5.1,1.8
			c-1.4,1.2-2.2,2.8-2.4,4.7h14.5c-0.3-2.1-1.1-3.7-2.4-4.8C149,11.4,147.5,10.8,145.7,10.8z"/>
		<path class="st20" d="M162.1,28.3h-2.6V-0.2h2.6V28.3z"/>
		<path class="st20" d="M106.9,8.8v2.9c-1.9-2.1-4.6-3.4-7.6-3.4C93.6,8.3,89,12.9,89,18.6c0,5.7,4.6,10.3,10.3,10.3
			c3,0,5.8-1.3,7.6-3.4v2.9h2.6v-8.5v-2.4V8.8H106.9z M104.7,24c-1.5,1.5-3.3,2.2-5.5,2.2c-2.2,0-4-0.7-5.5-2.2
			c-1.5-1.5-2.2-3.3-2.2-5.5s0.7-4,2.2-5.5c1.5-1.5,3.3-2.2,5.5-2.2c2.2,0,4,0.7,5.5,2.2c1.5,1.5,2.2,3.3,2.2,5.5
			S106.2,22.5,104.7,24z"/>
		<path class="st20" d="M67.9,8.8v2.9c1.9-2.1,4.6-3.4,7.6-3.4c5.7,0,10.3,4.6,10.3,10.3c0,5.7-4.6,10.3-10.3,10.3
			c-3,0-5.8-1.3-7.6-3.4v10.7h-2.6V19.8v-2.4V8.8H67.9z M70.1,24c1.5,1.5,3.3,2.2,5.5,2.2s4-0.7,5.5-2.2c1.5-1.5,2.2-3.3,2.2-5.5
			s-0.7-4-2.2-5.5c-1.5-1.5-3.3-2.2-5.5-2.2s-4,0.7-5.5,2.2c-1.5,1.5-2.2,3.3-2.2,5.5S68.6,22.5,70.1,24z"/>
	</g>
</g>
</svg>
