<?xml version="1.0" encoding="utf-8"?>
<!-- Generator: Adobe Illustrator 26.3.1, SVG Export Plug-In . SVG Version: 6.00 Build 0)  -->
<svg version="1.1" id="katman_1" xmlns="http://www.w3.org/2000/svg" xmlns:xlink="http://www.w3.org/1999/xlink" x="0px" y="0px"
	 viewBox="0 0 202 37.3" style="enable-background:new 0 0 202 37.3;" xml:space="preserve">
<style type="text/css">
	.st0{display:none;}
	.st1{display:inline;}
	.st2{clip-path:url(#SVGID_00000063599976651586077910000004023068777326190734_);fill:#313A48;}
	.st3{clip-path:url(#SVGID_00000102522504684761341540000014094528483461513654_);fill:#313A48;}
	.st4{clip-path:url(#SVGID_00000114064866271191090450000001453600182405080732_);fill:#313A48;}
	.st5{clip-path:url(#SVGID_00000055678816497489117100000002069843554347030451_);fill:#313A48;}
	.st6{clip-path:url(#SVGID_00000116236145088377273120000005503510940949973647_);fill:#313A48;}
	.st7{clip-path:url(#SVGID_00000060739910349925293630000014709656800826820005_);fill:#313A48;}
	.st8{clip-path:url(#SVGID_00000105420166344790856090000001615331062169303960_);fill:#313A48;}
	.st9{clip-path:url(#SVGID_00000151520972437801984370000015939884018736367232_);fill:#313A48;}
	.st10{clip-path:url(#SVGID_00000163057478365047003650000017639727867317369986_);fill:#024AD0;}
	.st11{clip-path:url(#SVGID_00000084522094098947145190000012755773671858965904_);fill:#024AD0;}
	.st12{clip-path:url(#SVGID_00000074420792343123860670000013574362742203007872_);fill:#024AD0;}
	.st13{clip-path:url(#SVGID_00000074425056166754596090000003231641683874018176_);fill:#024AD0;}
	.st14{clip-path:url(#SVGID_00000047752206089673616250000001157846630293105306_);fill:#024AD0;}
	.st15{clip-path:url(#SVGID_00000118373775498196025760000001725347517053330095_);fill:#024AD0;}
	.st16{clip-path:url(#SVGID_00000014624899999391018400000015714650999731574695_);fill:#024AD0;}
	.st17{clip-path:url(#SVGID_00000012457078467630980080000005362845717134541193_);fill:#313A48;}
	.st18{display:inline;fill:#313A48;}
	.st19{display:inline;fill:#024AD0;}
	.st20{fill:#313A48;}
	.st21{fill:#174AFB;}
</style>
<g class="st0">
	<g class="st1">
		<g>
			<defs>
				<rect id="SVGID_1_" y="0" width="202" height="30"/>
			</defs>
			<clipPath id="SVGID_00000165953264762741570360000018076174555347240610_">
				<use xlink:href="#SVGID_1_"  style="overflow:visible;"/>
			</clipPath>
			<path style="clip-path:url(#SVGID_00000165953264762741570360000018076174555347240610_);fill:#313A48;" d="M115.4,28.8
				c-2.9,0-5.4-1-7.3-2.9c-1.9-2-2.9-4.4-2.9-7.3s1-5.3,2.9-7.3s4.4-2.9,7.3-2.9c1.9,0,3.6,0.5,5.2,1.4c1.5,0.9,2.6,2.2,3.3,3.7
				l-2.1,1.2c-0.5-1.2-1.4-2.1-2.5-2.8s-2.5-1-3.9-1c-2.2,0-4,0.7-5.5,2.2s-2.2,3.3-2.2,5.5s0.7,4,2.2,5.5s3.3,2.2,5.5,2.2
				c1.5,0,2.8-0.3,3.9-1s2-1.6,2.7-2.8l2.1,1.2c-0.8,1.6-2,2.8-3.5,3.7C119,28.4,117.3,28.8,115.4,28.8"/>
		</g>
	</g>
	<g class="st1">
		<g>
			<defs>
				<rect id="SVGID_00000139978292991962335520000000100553059901171372_" y="0" width="202" height="30"/>
			</defs>
			<clipPath id="SVGID_00000156569562175122262770000015840508087537865362_">
				<use xlink:href="#SVGID_00000139978292991962335520000000100553059901171372_"  style="overflow:visible;"/>
			</clipPath>
			<path style="clip-path:url(#SVGID_00000156569562175122262770000015840508087537865362_);fill:#313A48;" d="M145.1,8.9h2.6v19.5
				h-2.6v-3.8c-1.8,2.9-4.4,4.3-7.9,4.3c-2.8,0-5.1-1-7.1-3s-2.9-4.4-2.9-7.2c0-2.9,1-5.3,2.9-7.2c2-2,4.3-3,7.1-3
				c3.5,0,6.1,1.4,7.9,4.3V8.9z M131.9,24.1c1.5,1.5,3.3,2.2,5.5,2.2s4-0.7,5.5-2.2s2.2-3.3,2.2-5.5s-0.7-4-2.2-5.5
				s-3.3-2.2-5.5-2.2s-4,0.7-5.5,2.2s-2.2,3.3-2.2,5.5S130.5,22.6,131.9,24.1"/>
		</g>
	</g>
	<g class="st1">
		<g>
			<defs>
				<rect id="SVGID_00000026885358949349352390000000970568946076057265_" y="0" width="202" height="30"/>
			</defs>
			<clipPath id="SVGID_00000134946214393538708020000005446099568685532058_">
				<use xlink:href="#SVGID_00000026885358949349352390000000970568946076057265_"  style="overflow:visible;"/>
			</clipPath>
			<path style="clip-path:url(#SVGID_00000134946214393538708020000005446099568685532058_);fill:#313A48;" d="M171.1,8.4
				c2.9,0,5.2,1,7,3.1c1.8,2,2.7,4.4,2.7,7.2c0,0.3,0,0.7-0.1,1.2h-17.1c0.3,2,1.1,3.5,2.5,4.7s3.2,1.7,5.2,1.7
				c1.5,0,2.8-0.3,3.8-0.9c1.1-0.6,1.9-1.4,2.4-2.4l2.3,1.3c-0.9,1.4-2,2.5-3.5,3.3s-3.2,1.2-5.1,1.2c-3.1,0-5.6-1-7.5-2.9
				s-2.9-4.4-2.9-7.3s0.9-5.3,2.8-7.3C165.7,9.4,168.1,8.4,171.1,8.4 M171.1,10.9c-2,0-3.7,0.6-5.1,1.8c-1.4,1.2-2.2,2.8-2.4,4.7
				h14.5c-0.3-2.1-1.1-3.6-2.4-4.8C174.4,11.5,172.9,10.9,171.1,10.9"/>
		</g>
	</g>
	<g class="st1">
		<g>
			<defs>
				<rect id="SVGID_00000134961378210384991820000013326872887525728671_" y="0" width="202" height="30"/>
			</defs>
			<clipPath id="SVGID_00000018231446555124384860000014005527317819225999_">
				<use xlink:href="#SVGID_00000134961378210384991820000013326872887525728671_"  style="overflow:visible;"/>
			</clipPath>
			<path style="clip-path:url(#SVGID_00000018231446555124384860000014005527317819225999_);fill:#313A48;" d="M88.3,8.9V4.2
				l2.6-0.8v5.5h5.6v2.5h-5.6v11.8c0,1.1,0.2,1.8,0.6,2.3s1,0.7,1.9,0.7c0.8,0,1.9,0,3.1-0.1v2.3c-2.7,0.4-4.8,0.2-6.1-0.6
				c-1.4-0.8-2-2.3-2-4.6V11.4L88.3,8.9L88.3,8.9z"/>
		</g>
	</g>
	<g class="st1">
		<g>
			<defs>
				<rect id="SVGID_00000080189695774595064740000017949181977934893233_" y="0" width="202" height="30"/>
			</defs>
			<clipPath id="SVGID_00000083795324150378671640000010449202758332447874_">
				<use xlink:href="#SVGID_00000080189695774595064740000017949181977934893233_"  style="overflow:visible;"/>
			</clipPath>
			<path style="clip-path:url(#SVGID_00000083795324150378671640000010449202758332447874_);fill:#313A48;" d="M184.4,8.9V4.2
				l2.6-0.8v5.5h5.6v2.5H187v11.8c0,1.1,0.2,1.8,0.6,2.3c0.4,0.5,1,0.7,1.9,0.7c0.8,0,1.9,0,3.1-0.1v2.3c-2.7,0.4-4.8,0.2-6.1-0.6
				c-1.4-0.8-2-2.3-2-4.6V11.4V8.9H184.4z"/>
		</g>
	</g>
	<g class="st1">
		<g>
			<defs>
				<rect id="SVGID_00000156575157537555009020000016214364358921130413_" y="0" width="202" height="30"/>
			</defs>
			<clipPath id="SVGID_00000029007115598780139050000016839428416258224258_">
				<use xlink:href="#SVGID_00000156575157537555009020000016214364358921130413_"  style="overflow:visible;"/>
			</clipPath>
			
				<rect x="99.5" y="8.9" style="clip-path:url(#SVGID_00000029007115598780139050000016839428416258224258_);fill:#313A48;" width="2.6" height="19.5"/>
		</g>
	</g>
	<g class="st1">
		<g>
			<defs>
				<rect id="SVGID_00000173855172421395764870000015470925831575794343_" y="0" width="202" height="30"/>
			</defs>
			<clipPath id="SVGID_00000008836855380991316830000003765310530013648051_">
				<use xlink:href="#SVGID_00000173855172421395764870000015470925831575794343_"  style="overflow:visible;"/>
			</clipPath>
			
				<rect x="99.5" y="3.5" style="clip-path:url(#SVGID_00000008836855380991316830000003765310530013648051_);fill:#313A48;" width="2.6" height="2.6"/>
		</g>
	</g>
	<g class="st1">
		<g>
			<defs>
				<rect id="SVGID_00000097499017600531448410000000367753354818015910_" y="0" width="202" height="30"/>
			</defs>
			<clipPath id="SVGID_00000028292853395065655250000002818011648612668095_">
				<use xlink:href="#SVGID_00000097499017600531448410000000367753354818015910_"  style="overflow:visible;"/>
			</clipPath>
			<path style="clip-path:url(#SVGID_00000028292853395065655250000002818011648612668095_);fill:#313A48;" d="M75.4,8.4
				c2.9,0,5.2,1,7,3.1c1.8,2,2.7,4.4,2.7,7.2c0,0.3,0,0.7-0.1,1.2H67.9c0.3,2,1.1,3.5,2.5,4.7s3.2,1.7,5.2,1.7
				c1.5,0,2.8-0.3,3.8-0.9c1.1-0.6,1.9-1.4,2.4-2.4l2.3,1.3c-0.9,1.4-2,2.5-3.5,3.3s-3.2,1.2-5.1,1.2c-3.1,0-5.6-1-7.5-2.9
				s-2.9-4.4-2.9-7.3s0.9-5.3,2.8-7.3C70,9.4,72.5,8.4,75.4,8.4 M75.4,10.9c-2,0-3.7,0.6-5.1,1.8s-2.2,2.8-2.4,4.7h14.5
				c-0.3-2.1-1-3.6-2.4-4.8C78.8,11.5,77.2,10.9,75.4,10.9"/>
		</g>
	</g>
	<g class="st1">
		<g>
			<defs>
				<rect id="SVGID_00000131333839018955151900000009736937292136650670_" y="0" width="202" height="30"/>
			</defs>
			<clipPath id="SVGID_00000131347992840300797810000004749510029115550850_">
				<use xlink:href="#SVGID_00000131333839018955151900000009736937292136650670_"  style="overflow:visible;"/>
			</clipPath>
			<path style="clip-path:url(#SVGID_00000131347992840300797810000004749510029115550850_);fill:#024AD0;" d="M200.8,25.6
				c0,1.5-1.3,2.8-2.8,2.8s-2.8-1.3-2.8-2.8s1.3-2.8,2.8-2.8C199.6,22.8,200.8,24,200.8,25.6"/>
		</g>
	</g>
	<g class="st1">
		<g>
			<defs>
				<rect id="SVGID_00000027575545285973478460000013208418265023925419_" y="0" width="202" height="30"/>
			</defs>
			<clipPath id="SVGID_00000000212671152871387670000005271473042430636479_">
				<use xlink:href="#SVGID_00000027575545285973478460000013208418265023925419_"  style="overflow:visible;"/>
			</clipPath>
			
				<rect x="13.7" y="8.9" style="clip-path:url(#SVGID_00000000212671152871387670000005271473042430636479_);fill:#024AD0;" width="5" height="19.5"/>
		</g>
	</g>
	<g class="st1">
		<g>
			<defs>
				<rect id="SVGID_00000147930180844690984770000010743616998550573980_" y="0" width="202" height="30"/>
			</defs>
			<clipPath id="SVGID_00000168111769299248282140000010969770012580410551_">
				<use xlink:href="#SVGID_00000147930180844690984770000010743616998550573980_"  style="overflow:visible;"/>
			</clipPath>
			<path style="clip-path:url(#SVGID_00000168111769299248282140000010969770012580410551_);fill:#024AD0;" d="M58.1,25.9
				c-2,2-4.4,3-7.3,3c-2.9,0-5.3-1-7.3-3s-3-4.4-3-7.3s1-5.3,3-7.3s4.4-3,7.3-3c2.9,0,5.3,1,7.3,3s3,4.4,3,7.3S60.1,23.9,58.1,25.9
				 M47,22.5c1,1,2.3,1.5,3.8,1.5s2.8-0.5,3.8-1.5s1.5-2.3,1.5-3.9s-0.5-2.8-1.5-3.9c-1-1-2.3-1.5-3.8-1.5S48,13.7,47,14.7
				s-1.5,2.3-1.5,3.9S46,21.5,47,22.5"/>
		</g>
	</g>
	<g class="st1">
		<g>
			<defs>
				<rect id="SVGID_00000141436169467851479950000014909758941550940061_" y="0" width="202" height="30"/>
			</defs>
			<clipPath id="SVGID_00000157294869434564697650000009344414178714635152_">
				<use xlink:href="#SVGID_00000141436169467851479950000014909758941550940061_"  style="overflow:visible;"/>
			</clipPath>
			<path style="clip-path:url(#SVGID_00000157294869434564697650000009344414178714635152_);fill:#024AD0;" d="M10.6,13.7V8.9H6.2
				V3.4h-5v3.5v1.9v4.8v5.1v3c0,3.7,1.8,5.4,3.8,6.1c1.8,0.6,3.6,0.6,4.7,0.5c0.3,0,0.6-0.1,1-0.1v-4.6c-1,0.1-1.8,0.1-2.4,0
				c-0.6,0-1.1-0.2-1.5-0.5c-0.3-0.3-0.5-0.8-0.5-1.5v-8.1h4.3C10.6,13.5,10.6,13.7,10.6,13.7z"/>
		</g>
	</g>
	<g class="st1">
		<g>
			<defs>
				<rect id="SVGID_00000094588485696896281410000009200946269862937497_" y="0" width="202" height="30"/>
			</defs>
			<clipPath id="SVGID_00000051372649178762356120000002190070207990423977_">
				<use xlink:href="#SVGID_00000094588485696896281410000009200946269862937497_"  style="overflow:visible;"/>
			</clipPath>
			<polygon style="clip-path:url(#SVGID_00000051372649178762356120000002190070207990423977_);fill:#024AD0;" points="34.3,8.9 
				26.8,18.5 34.7,28.4 40.5,28.4 32.4,18.5 40.3,8.9 			"/>
		</g>
	</g>
	<g class="st1">
		<g>
			<defs>
				<rect id="SVGID_00000116199061231040268250000000353599762514591167_" y="0" width="202" height="30"/>
			</defs>
			<clipPath id="SVGID_00000083796285975730848400000007325501387251826308_">
				<use xlink:href="#SVGID_00000116199061231040268250000000353599762514591167_"  style="overflow:visible;"/>
			</clipPath>
			
				<rect x="21.8" y="1.1" style="clip-path:url(#SVGID_00000083796285975730848400000007325501387251826308_);fill:#024AD0;" width="5" height="27.3"/>
		</g>
	</g>
	<g class="st1">
		<g>
			<defs>
				<rect id="SVGID_00000141447578819536760590000008139297091828799152_" y="0" width="202" height="30"/>
			</defs>
			<clipPath id="SVGID_00000055690268232199160920000004004915417233161123_">
				<use xlink:href="#SVGID_00000141447578819536760590000008139297091828799152_"  style="overflow:visible;"/>
			</clipPath>
			<path style="clip-path:url(#SVGID_00000055690268232199160920000004004915417233161123_);fill:#024AD0;" d="M19.3,4.2
				c0,1.7-1.4,3.1-3.1,3.1s-3.1-1.4-3.1-3.1s1.4-3.1,3.1-3.1C17.9,1.1,19.3,2.5,19.3,4.2"/>
		</g>
	</g>
	<g class="st1">
		<g>
			<defs>
				<rect id="SVGID_00000155125392759494371910000016416071894429838754_" y="0" width="202" height="30"/>
			</defs>
			<clipPath id="SVGID_00000149357141732455426450000009509771836644395917_">
				<use xlink:href="#SVGID_00000155125392759494371910000016416071894429838754_"  style="overflow:visible;"/>
			</clipPath>
			<path style="clip-path:url(#SVGID_00000149357141732455426450000009509771836644395917_);fill:#313A48;" d="M153.3,10.9
				c1.6-1.5,3-2.1,6.2-2.3v2.5c-1.8,0-3.2,0.5-4.4,1.6c-1.2,1-1.8,2.7-1.8,4.9v10.8h-2.6V8.9h2.6V10.9z"/>
		</g>
	</g>
</g>
<g class="st0">
	<path class="st18" d="M122.9,9V4.3l2.6-0.8V9h5.6v2.5h-5.6v11.7c0,1.1,0.2,1.8,0.6,2.3s1,0.7,1.9,0.7c0.8,0,1.9,0,3.1-0.1v2.2
		c-2.7,0.4-4.7,0.2-6.1-0.6c-1.4-0.8-2-2.3-2-4.6V11.4V9H122.9z"/>
	<rect x="155.9" y="1.2" class="st18" width="2.6" height="27.1"/>
	<rect x="88.2" y="9" class="st18" width="2.6" height="19.3"/>
	<rect x="88.2" y="3.6" class="st18" width="2.6" height="2.6"/>
	<rect x="117.2" y="9" class="st18" width="2.6" height="19.3"/>
	<rect x="117.2" y="3.6" class="st18" width="2.6" height="2.6"/>
	<path class="st18" d="M150.3,9v2.8c-1.9-2.1-4.6-3.4-7.6-3.4c-5.6,0-10.2,4.6-10.2,10.2s4.6,10.2,10.2,10.2c3,0,5.7-1.3,7.6-3.4
		v2.8h2.6v-8.5v-2.4V9H150.3z M148,24.1c-1.5,1.5-3.3,2.2-5.4,2.2c-2.1,0-3.9-0.7-5.4-2.2s-2.2-3.3-2.2-5.4s0.7-3.9,2.2-5.4
		s3.3-2.2,5.4-2.2c2.1,0,3.9,0.7,5.4,2.2s2.2,3.3,2.2,5.4C150.3,20.8,149.5,22.6,148,24.1"/>
	<path class="st18" d="M85.1,28.3v-8.5v-2.4V1.2h-2.6v10.6C80.7,9.7,78,8.4,75,8.4c-5.6,0-10.2,4.6-10.2,10.2S69.4,28.8,75,28.8
		c3,0,5.7-1.3,7.6-3.4v2.8h2.5V28.3z M82.6,18.6c0,2.1-0.7,4-2.2,5.4c-1.5,1.5-3.3,2.2-5.4,2.2s-3.9-0.7-5.4-2.2s-2.2-3.3-2.2-5.4
		s0.7-3.9,2.2-5.4C71,11.7,72.8,11,75,11c2.1,0,3.9,0.7,5.4,2.2S82.6,16.5,82.6,18.6"/>
	<path class="st18" d="M114.1,9h-2.6v2.8c-1.9-2.1-4.6-3.4-7.6-3.4c-1.1,0-2.1,0.2-3,0.5c-1.6,0.5-3,1.3-4.3,2.6
		c-1.9,2-2.9,4.4-2.9,7.2s1,5.2,2.9,7.2c1.2,1.3,2.7,2.1,4.2,2.6c1,0.3,2,0.5,3,0.5c3,0,5.7-1.3,7.6-3.4v2.1c0,2-0.6,3.6-1.9,4.7
		c-1.3,1.2-3,1.8-5.2,1.8c-3.5,0-5.8-1.2-6.9-3.5L95.2,32c1.6,3.1,4.6,4.7,9.2,4.7c2.7,0,4.9-0.8,6.8-2.4c1.9-1.6,2.9-3.8,2.9-6.6
		v-2.1l0,0V20v-2.4V9L114.1,9z M110.7,22.3c-0.3,0.6-0.8,1.2-1.3,1.7c-0.7,0.7-1.6,1.3-2.5,1.7c-0.9,0.4-1.9,0.6-3,0.6
		c-2.1,0-3.9-0.7-5.4-2.2c0,0,0,0-0.1-0.1c-1.4-1.5-2.1-3.3-2.1-5.4c0-1.3,0.3-2.5,0.8-3.6c0.3-0.7,0.8-1.3,1.4-1.8
		c0.2-0.2,0.3-0.3,0.5-0.5c1-0.8,2.1-1.4,3.3-1.6c0.5-0.1,1-0.1,1.5-0.1c2.1,0,3.9,0.7,5.4,2.2s2.2,3.3,2.2,5.4
		C111.6,20,111.3,21.2,110.7,22.3L110.7,22.3"/>
	<path class="st19" d="M168.1,25.5c0,1.5-1.2,2.8-2.8,2.8c-1.5,0-2.8-1.2-2.8-2.8c0-1.5,1.2-2.8,2.8-2.8
		C166.9,22.7,168.1,24,168.1,25.5"/>
	<rect x="13.6" y="9" class="st19" width="5" height="19.3"/>
	<path class="st19" d="M57.7,25.9c-2,2-4.4,3-7.3,3c-2.9,0-5.3-1-7.2-3c-2-2-3-4.4-3-7.2c0-2.9,1-5.3,3-7.2c2-2,4.4-3,7.2-3
		c2.9,0,5.3,1,7.3,3s3,4.4,3,7.2S59.7,23.9,57.7,25.9 M46.7,22.4c1,1,2.2,1.5,3.7,1.5s2.7-0.5,3.8-1.5c1-1,1.5-2.3,1.5-3.8
		s-0.5-2.8-1.5-3.8s-2.3-1.5-3.8-1.5s-2.7,0.5-3.7,1.5s-1.5,2.3-1.5,3.8S45.7,21.4,46.7,22.4"/>
	<path class="st19" d="M10.5,13.7V9H6.1V3.5h-5V7v2v4.8v5v3c0,3.6,1.8,5.3,3.8,6.1c1.8,0.5,3.6,0.6,4.6,0.5c0.3,0,0.6-0.1,0.9-0.1
		v-4.5c-1,0.1-1.8,0.1-2.4,0c-0.6,0-1.1-0.2-1.5-0.5C6.2,23,6,22.5,6,21.8v-8L10.5,13.7L10.5,13.7z"/>
	<polygon class="st19" points="34,9 26.6,18.5 34.4,28.3 40.2,28.3 32.2,18.5 40,9 	"/>
	<rect x="21.6" y="1.2" class="st19" width="5" height="27.1"/>
	<path class="st19" d="M19.2,4.3c0,1.7-1.4,3.1-3.1,3.1C14.3,7.4,13,6,13,4.3s1.4-3.1,3.1-3.1C17.8,1.2,19.2,2.6,19.2,4.3"/>
</g>
<g>
	<path class="st20" d="M159.5,10.8c1.6-1.5,3-2.1,6.2-2.3v2.5c-1.8,0-3.2,0.5-4.4,1.6c-1.2,1-1.8,2.7-1.8,4.9v10.8H157V8.7h2.6V10.8
		z"/>
	<path class="st20" d="M99.7,3c-1.9-0.2-3.3,0.2-4.2,1c-0.9,0.8-1.4,2.1-1.4,4v0.8h5.6v2.5h-5.6v17h-2.6v-17h-3.3V8.7h3.3V8
		c0-2.5,0.7-4.5,2.1-5.8c1.4-1.3,3.4-1.9,6.1-1.7V3z"/>
	<path class="st20" d="M125.9,8.7V4.1l2.6-0.8v5.5h5.6v2.5h-5.6V23c0,1.1,0.2,1.8,0.6,2.3c0.4,0.5,1,0.7,1.9,0.7
		c0.8,0,1.9,0,3.1-0.1v2.3c-2.7,0.4-4.8,0.2-6.1-0.6c-1.4-0.8-2-2.3-2-4.6V11.2V8.7z"/>
	<path class="st20" d="M151.3,8.7h2.6v19.5h-2.6v-3c-1.5,2.3-3.6,3.5-6.5,3.5c-2.4,0-4.2-0.7-5.6-2.2c-1.4-1.4-2-3.4-2-5.8v-12h2.6
		v12c0,1.7,0.5,3.1,1.4,4.1c0.9,1,2.2,1.4,3.9,1.4c1.9,0,3.4-0.6,4.6-1.8c1.2-1.2,1.8-3,1.8-5.5V8.7z"/>
	<path class="st20" d="M119.1,8.8v2.9c-1.9-2.1-4.6-3.4-7.6-3.4c-5.7,0-10.3,4.6-10.3,10.3c0,5.7,4.6,10.3,10.3,10.3
		c3,0,5.8-1.3,7.6-3.4v2.9h2.6v-8.5v-2.4V8.8H119.1z M116.9,24c-1.5,1.5-3.3,2.2-5.5,2.2c-2.2,0-4-0.7-5.5-2.2
		c-1.5-1.5-2.2-3.3-2.2-5.5s0.7-4,2.2-5.5c1.5-1.5,3.3-2.2,5.5-2.2c2.2,0,4,0.7,5.5,2.2c1.5,1.5,2.2,3.3,2.2,5.5
		S118.4,22.5,116.9,24z"/>
	<path class="st20" d="M185.2,8.8v2.9c-1.9-2.1-4.6-3.4-7.6-3.4c-5.7,0-10.3,4.6-10.3,10.3c0,5.7,4.6,10.3,10.3,10.3
		c3,0,5.8-1.3,7.6-3.4v2.9h2.6v-8.5v-2.4V8.8H185.2z M182.9,24c-1.5,1.5-3.3,2.2-5.5,2.2c-2.2,0-4-0.7-5.5-2.2
		c-1.5-1.5-2.2-3.3-2.2-5.5s0.7-4,2.2-5.5c1.5-1.5,3.3-2.2,5.5-2.2c2.2,0,4,0.7,5.5,2.2c1.5,1.5,2.2,3.3,2.2,5.5
		S184.4,22.5,182.9,24z"/>
	<path class="st20" d="M75.5,8.3c2.9,0,5.2,1,7,3.1c1.8,2,2.7,4.4,2.7,7.2c0,0.3,0,0.7-0.1,1.2H67.9c0.3,2,1.1,3.5,2.5,4.7
		c1.4,1.2,3.2,1.7,5.2,1.7c1.5,0,2.8-0.3,3.8-0.9c1.1-0.6,1.9-1.4,2.4-2.4l2.3,1.3c-0.9,1.4-2,2.5-3.5,3.3c-1.5,0.8-3.2,1.2-5.1,1.2
		c-3.1,0-5.6-1-7.5-2.9c-1.9-1.9-2.9-4.4-2.9-7.3c0-2.9,0.9-5.3,2.8-7.3C70,9.3,72.5,8.3,75.5,8.3z M75.5,10.8c-2,0-3.7,0.6-5.1,1.8
		c-1.4,1.2-2.2,2.8-2.4,4.7h14.5c-0.3-2.1-1.1-3.6-2.4-4.8C78.8,11.3,77.2,10.8,75.5,10.8z"/>
	<circle class="st21" cx="194.7" cy="25.4" r="2.8"/>
	<g>
		<path class="st21" d="M13.7,28.2V8.7h5v19.5H13.7z"/>
		<path class="st21" d="M58.1,25.8c-2,2-4.4,3-7.3,3c-2.9,0-5.3-1-7.3-3c-2-2-3-4.4-3-7.3c0-2.9,1-5.3,3-7.3s4.4-3,7.3-3
			c2.9,0,5.3,1,7.3,3c2,2,3,4.4,3,7.3C61.1,21.4,60.1,23.8,58.1,25.8z M47,22.3c1,1,2.3,1.5,3.8,1.5c1.5,0,2.8-0.5,3.8-1.5
			c1-1,1.5-2.3,1.5-3.9c0-1.6-0.5-2.8-1.5-3.9c-1-1-2.3-1.5-3.8-1.5c-1.5,0-2.8,0.5-3.8,1.5c-1,1-1.5,2.3-1.5,3.9
			C45.5,20,46,21.3,47,22.3z"/>
		<path class="st21" d="M10.6,13.6V8.7H6.2V3.3h-5v3.5v1.9v4.8v5.1v3C1.2,25.3,3,27,5,27.8c1.8,0.6,3.6,0.6,4.7,0.5
			c0.3,0,0.6-0.1,1-0.1v-4.6c-1,0.1-1.8,0.1-2.4,0c-0.6,0-1.1-0.2-1.5-0.5s-0.5-0.8-0.5-1.5v-8.1H10.6z"/>
		<polygon class="st21" points="34.3,8.7 26.8,18.4 34.7,28.2 40.5,28.2 32.5,18.4 40.3,8.7 		"/>
		<rect x="21.8" y="1" class="st21" width="5" height="27.3"/>
		<circle class="st21" cx="16.2" cy="4.1" r="3.1"/>
	</g>
</g>
</svg>
