<?xml version="1.0" encoding="utf-8"?>
<!-- Generator: Adobe Illustrator 26.5.0, SVG Export Plug-In . SVG Version: 6.00 Build 0)  -->
<svg version="1.1" id="katman_1" xmlns="http://www.w3.org/2000/svg" xmlns:xlink="http://www.w3.org/1999/xlink" x="0px" y="0px"
	 viewBox="0 0 202 37.3" style="enable-background:new 0 0 202 37.3;" xml:space="preserve">
<style type="text/css">
	.st0{display:none;}
	.st1{display:inline;}
	.st2{clip-path:url(#SVGID_00000005956159025976810610000011996485291778750111_);fill:#313A48;}
	.st3{clip-path:url(#SVGID_00000128444676778724811270000002710132236467433656_);fill:#313A48;}
	.st4{clip-path:url(#SVGID_00000098943138415150208900000000796599699628456067_);fill:#313A48;}
	.st5{clip-path:url(#SVGID_00000026137731581131841930000007457356058021370255_);fill:#313A48;}
	.st6{clip-path:url(#SVGID_00000025421551330733703420000006687729040935719610_);fill:#313A48;}
	.st7{clip-path:url(#SVGID_00000149369663887709489820000015062798951275403179_);fill:#313A48;}
	.st8{clip-path:url(#SVGID_00000150802090436044601270000004754931477111010185_);fill:#313A48;}
	.st9{clip-path:url(#SVGID_00000039842977509056120560000010109254794734304435_);fill:#313A48;}
	.st10{clip-path:url(#SVGID_00000069399738169096327220000014727026966120605343_);fill:#174AFB;}
	.st11{clip-path:url(#SVGID_00000070111741742487951850000002097661197794663312_);fill:#174AFB;}
	.st12{clip-path:url(#SVGID_00000095303921068162933740000013215359408295467951_);fill:#174AFB;}
	.st13{clip-path:url(#SVGID_00000153707400935977874900000012182643622940715952_);fill:#174AFB;}
	.st14{clip-path:url(#SVGID_00000079450603088192609260000003311929834048459921_);fill:#174AFB;}
	.st15{clip-path:url(#SVGID_00000049202265401141262090000010789319447423040190_);fill:#174AFB;}
	.st16{clip-path:url(#SVGID_00000049219332404696544350000015397724196985844144_);fill:#174AFB;}
	.st17{clip-path:url(#SVGID_00000049195947589025316890000014808310026091359878_);fill:#313A48;}
	.st18{display:inline;fill:#313A48;}
	.st19{display:inline;fill:#174AFB;}
	.st20{fill:#174AFB;}
	.st21{fill:#313A48;}
</style>
<g class="st0">
	<g class="st1">
		<defs>
			<rect id="SVGID_1_" y="0" width="202" height="30"/>
		</defs>
		<clipPath id="SVGID_00000098928156212698606440000008761445720730667406_">
			<use xlink:href="#SVGID_1_"  style="overflow:visible;"/>
		</clipPath>
		<path style="clip-path:url(#SVGID_00000098928156212698606440000008761445720730667406_);fill:#313A48;" d="M115.4,28.8
			c-2.9,0-5.4-1-7.3-2.9c-1.9-2-2.9-4.4-2.9-7.3s1-5.3,2.9-7.3s4.4-2.9,7.3-2.9c1.9,0,3.6,0.5,5.2,1.4c1.5,0.9,2.6,2.2,3.3,3.7
			l-2.1,1.2c-0.5-1.2-1.4-2.1-2.5-2.8s-2.5-1-3.9-1c-2.2,0-4,0.7-5.5,2.2s-2.2,3.3-2.2,5.5s0.7,4,2.2,5.5s3.3,2.2,5.5,2.2
			c1.5,0,2.8-0.3,3.9-1s2-1.6,2.7-2.8l2.1,1.2c-0.8,1.6-2,2.8-3.5,3.7C119,28.4,117.3,28.8,115.4,28.8"/>
	</g>
	<g class="st1">
		<defs>
			<rect id="SVGID_00000029034441290031453940000000994916947876713380_" y="0" width="202" height="30"/>
		</defs>
		<clipPath id="SVGID_00000098919787400897459440000014233882296391409075_">
			<use xlink:href="#SVGID_00000029034441290031453940000000994916947876713380_"  style="overflow:visible;"/>
		</clipPath>
		<path style="clip-path:url(#SVGID_00000098919787400897459440000014233882296391409075_);fill:#313A48;" d="M145.1,8.9h2.6v19.5
			h-2.6v-3.8c-1.8,2.9-4.4,4.3-7.9,4.3c-2.8,0-5.1-1-7.1-3s-2.9-4.4-2.9-7.2c0-2.9,1-5.3,2.9-7.2c2-2,4.3-3,7.1-3
			c3.5,0,6.1,1.4,7.9,4.3V8.9z M131.9,24.1c1.5,1.5,3.3,2.2,5.5,2.2s4-0.7,5.5-2.2s2.2-3.3,2.2-5.5s-0.7-4-2.2-5.5s-3.3-2.2-5.5-2.2
			s-4,0.7-5.5,2.2s-2.2,3.3-2.2,5.5S130.5,22.6,131.9,24.1"/>
	</g>
	<g class="st1">
		<defs>
			<rect id="SVGID_00000176018027143978841300000013895999550727379085_" y="0" width="202" height="30"/>
		</defs>
		<clipPath id="SVGID_00000141438198036335551280000013270559619494150565_">
			<use xlink:href="#SVGID_00000176018027143978841300000013895999550727379085_"  style="overflow:visible;"/>
		</clipPath>
		<path style="clip-path:url(#SVGID_00000141438198036335551280000013270559619494150565_);fill:#313A48;" d="M171.1,8.4
			c2.9,0,5.2,1,7,3.1c1.8,2,2.7,4.4,2.7,7.2c0,0.3,0,0.7-0.1,1.2h-17.1c0.3,2,1.1,3.5,2.5,4.7s3.2,1.7,5.2,1.7
			c1.5,0,2.8-0.3,3.8-0.9c1.1-0.6,1.9-1.4,2.4-2.4l2.3,1.3c-0.9,1.4-2,2.5-3.5,3.3s-3.2,1.2-5.1,1.2c-3.1,0-5.6-1-7.5-2.9
			s-2.9-4.4-2.9-7.3s0.9-5.3,2.8-7.3C165.7,9.4,168.1,8.4,171.1,8.4 M171.1,10.9c-2,0-3.7,0.6-5.1,1.8c-1.4,1.2-2.2,2.8-2.4,4.7
			h14.5c-0.3-2.1-1.1-3.6-2.4-4.8C174.4,11.5,172.9,10.9,171.1,10.9"/>
	</g>
	<g class="st1">
		<defs>
			<rect id="SVGID_00000061449218020406583870000003674723223373460152_" y="0" width="202" height="30"/>
		</defs>
		<clipPath id="SVGID_00000093135424795259723180000015157283033068152756_">
			<use xlink:href="#SVGID_00000061449218020406583870000003674723223373460152_"  style="overflow:visible;"/>
		</clipPath>
		<path style="clip-path:url(#SVGID_00000093135424795259723180000015157283033068152756_);fill:#313A48;" d="M88.3,8.9V4.2l2.6-0.8
			v5.5h5.6v2.5h-5.6v11.8c0,1.1,0.2,1.8,0.6,2.3s1,0.7,1.9,0.7c0.8,0,1.9,0,3.1-0.1v2.3c-2.7,0.4-4.8,0.2-6.1-0.6
			c-1.4-0.8-2-2.3-2-4.6V11.4L88.3,8.9L88.3,8.9z"/>
	</g>
	<g class="st1">
		<defs>
			<rect id="SVGID_00000145045937351640845540000017891869146745257910_" y="0" width="202" height="30"/>
		</defs>
		<clipPath id="SVGID_00000121246466222246385420000014541611518602150047_">
			<use xlink:href="#SVGID_00000145045937351640845540000017891869146745257910_"  style="overflow:visible;"/>
		</clipPath>
		<path style="clip-path:url(#SVGID_00000121246466222246385420000014541611518602150047_);fill:#313A48;" d="M184.4,8.9V4.2
			l2.6-0.8v5.5h5.6v2.5H187v11.8c0,1.1,0.2,1.8,0.6,2.3c0.4,0.5,1,0.7,1.9,0.7c0.8,0,1.9,0,3.1-0.1v2.3c-2.7,0.4-4.8,0.2-6.1-0.6
			c-1.4-0.8-2-2.3-2-4.6V11.4V8.9H184.4z"/>
	</g>
	<g class="st1">
		<defs>
			<rect id="SVGID_00000158749981562211305280000005929185964441448628_" y="0" width="202" height="30"/>
		</defs>
		<clipPath id="SVGID_00000132775103640108463540000000397208934435573928_">
			<use xlink:href="#SVGID_00000158749981562211305280000005929185964441448628_"  style="overflow:visible;"/>
		</clipPath>
		
			<rect x="99.5" y="8.9" style="clip-path:url(#SVGID_00000132775103640108463540000000397208934435573928_);fill:#313A48;" width="2.6" height="19.5"/>
	</g>
	<g class="st1">
		<defs>
			<rect id="SVGID_00000101061640533758714410000004833225320665988747_" y="0" width="202" height="30"/>
		</defs>
		<clipPath id="SVGID_00000160178975533209234310000010135260761422715025_">
			<use xlink:href="#SVGID_00000101061640533758714410000004833225320665988747_"  style="overflow:visible;"/>
		</clipPath>
		
			<rect x="99.5" y="3.5" style="clip-path:url(#SVGID_00000160178975533209234310000010135260761422715025_);fill:#313A48;" width="2.6" height="2.6"/>
	</g>
	<g class="st1">
		<defs>
			<rect id="SVGID_00000062174007114087737030000013636765621984794242_" y="0" width="202" height="30"/>
		</defs>
		<clipPath id="SVGID_00000132805073059456084530000010491760952517055371_">
			<use xlink:href="#SVGID_00000062174007114087737030000013636765621984794242_"  style="overflow:visible;"/>
		</clipPath>
		<path style="clip-path:url(#SVGID_00000132805073059456084530000010491760952517055371_);fill:#313A48;" d="M75.4,8.4
			c2.9,0,5.2,1,7,3.1c1.8,2,2.7,4.4,2.7,7.2c0,0.3,0,0.7-0.1,1.2H67.9c0.3,2,1.1,3.5,2.5,4.7s3.2,1.7,5.2,1.7c1.5,0,2.8-0.3,3.8-0.9
			c1.1-0.6,1.9-1.4,2.4-2.4l2.3,1.3c-0.9,1.4-2,2.5-3.5,3.3s-3.2,1.2-5.1,1.2c-3.1,0-5.6-1-7.5-2.9s-2.9-4.4-2.9-7.3
			s0.9-5.3,2.8-7.3C70,9.4,72.5,8.4,75.4,8.4 M75.4,10.9c-2,0-3.7,0.6-5.1,1.8s-2.2,2.8-2.4,4.7h14.5c-0.3-2.1-1-3.6-2.4-4.8
			C78.8,11.5,77.2,10.9,75.4,10.9"/>
	</g>
	<g class="st1">
		<defs>
			<rect id="SVGID_00000162333213558550567330000008270756143356223125_" y="0" width="202" height="30"/>
		</defs>
		<clipPath id="SVGID_00000049188209875307223380000012120506949300189841_">
			<use xlink:href="#SVGID_00000162333213558550567330000008270756143356223125_"  style="overflow:visible;"/>
		</clipPath>
		<path style="clip-path:url(#SVGID_00000049188209875307223380000012120506949300189841_);fill:#174AFB;" d="M200.8,25.6
			c0,1.5-1.3,2.8-2.8,2.8s-2.8-1.3-2.8-2.8s1.3-2.8,2.8-2.8C199.6,22.8,200.8,24,200.8,25.6"/>
	</g>
	<g class="st1">
		<defs>
			<rect id="SVGID_00000093139433250996862490000015585670907629166741_" y="0" width="202" height="30"/>
		</defs>
		<clipPath id="SVGID_00000041991292135124343120000001556852857699642260_">
			<use xlink:href="#SVGID_00000093139433250996862490000015585670907629166741_"  style="overflow:visible;"/>
		</clipPath>
		
			<rect x="13.7" y="8.9" style="clip-path:url(#SVGID_00000041991292135124343120000001556852857699642260_);fill:#174AFB;" width="5" height="19.5"/>
	</g>
	<g class="st1">
		<defs>
			<rect id="SVGID_00000159435357757730140230000007360626471361534338_" y="0" width="202" height="30"/>
		</defs>
		<clipPath id="SVGID_00000137096785218884563090000009839244223870033086_">
			<use xlink:href="#SVGID_00000159435357757730140230000007360626471361534338_"  style="overflow:visible;"/>
		</clipPath>
		<path style="clip-path:url(#SVGID_00000137096785218884563090000009839244223870033086_);fill:#174AFB;" d="M58.1,25.9
			c-2,2-4.4,3-7.3,3c-2.9,0-5.3-1-7.3-3s-3-4.4-3-7.3s1-5.3,3-7.3s4.4-3,7.3-3c2.9,0,5.3,1,7.3,3s3,4.4,3,7.3S60.1,23.9,58.1,25.9
			 M47,22.5c1,1,2.3,1.5,3.8,1.5s2.8-0.5,3.8-1.5s1.5-2.3,1.5-3.9s-0.5-2.8-1.5-3.9c-1-1-2.3-1.5-3.8-1.5S48,13.7,47,14.7
			s-1.5,2.3-1.5,3.9S46,21.5,47,22.5"/>
	</g>
	<g class="st1">
		<defs>
			<rect id="SVGID_00000128468638742871829100000015883669300118865317_" y="0" width="202" height="30"/>
		</defs>
		<clipPath id="SVGID_00000002370740384909309690000007951443991739437748_">
			<use xlink:href="#SVGID_00000128468638742871829100000015883669300118865317_"  style="overflow:visible;"/>
		</clipPath>
		<path style="clip-path:url(#SVGID_00000002370740384909309690000007951443991739437748_);fill:#174AFB;" d="M10.6,13.7V8.9H6.2
			V3.4h-5v3.5v1.9v4.8v5.1v3c0,3.7,1.8,5.4,3.8,6.1c1.8,0.6,3.6,0.6,4.7,0.5c0.3,0,0.6-0.1,1-0.1v-4.6c-1,0.1-1.8,0.1-2.4,0
			c-0.6,0-1.1-0.2-1.5-0.5c-0.3-0.3-0.5-0.8-0.5-1.5v-8.1h4.3V13.7z"/>
	</g>
	<g class="st1">
		<defs>
			<rect id="SVGID_00000155853784429741884460000000211040286477766786_" y="0" width="202" height="30"/>
		</defs>
		<clipPath id="SVGID_00000159453951499214471400000012239064116076646801_">
			<use xlink:href="#SVGID_00000155853784429741884460000000211040286477766786_"  style="overflow:visible;"/>
		</clipPath>
		<polygon style="clip-path:url(#SVGID_00000159453951499214471400000012239064116076646801_);fill:#174AFB;" points="34.3,8.9 
			26.8,18.5 34.7,28.4 40.5,28.4 32.4,18.5 40.3,8.9 		"/>
	</g>
	<g class="st1">
		<defs>
			<rect id="SVGID_00000099652041705588065220000000110575373260145840_" y="0" width="202" height="30"/>
		</defs>
		<clipPath id="SVGID_00000149367705221462657530000000603694255576779696_">
			<use xlink:href="#SVGID_00000099652041705588065220000000110575373260145840_"  style="overflow:visible;"/>
		</clipPath>
		
			<rect x="21.8" y="1.1" style="clip-path:url(#SVGID_00000149367705221462657530000000603694255576779696_);fill:#174AFB;" width="5" height="27.3"/>
	</g>
	<g class="st1">
		<defs>
			<rect id="SVGID_00000169543276809510533190000002953097872734758029_" y="0" width="202" height="30"/>
		</defs>
		<clipPath id="SVGID_00000180350841433523545200000003072767745930088081_">
			<use xlink:href="#SVGID_00000169543276809510533190000002953097872734758029_"  style="overflow:visible;"/>
		</clipPath>
		<path style="clip-path:url(#SVGID_00000180350841433523545200000003072767745930088081_);fill:#174AFB;" d="M19.3,4.2
			c0,1.7-1.4,3.1-3.1,3.1s-3.1-1.4-3.1-3.1s1.4-3.1,3.1-3.1C17.9,1.1,19.3,2.5,19.3,4.2"/>
	</g>
	<g class="st1">
		<defs>
			<rect id="SVGID_00000142873849141505050450000005866491080252462473_" y="0" width="202" height="30"/>
		</defs>
		<clipPath id="SVGID_00000033336730669413398250000013540592010832241081_">
			<use xlink:href="#SVGID_00000142873849141505050450000005866491080252462473_"  style="overflow:visible;"/>
		</clipPath>
		<path style="clip-path:url(#SVGID_00000033336730669413398250000013540592010832241081_);fill:#313A48;" d="M153.3,10.9
			c1.6-1.5,3-2.1,6.2-2.3v2.5c-1.8,0-3.2,0.5-4.4,1.6c-1.2,1-1.8,2.7-1.8,4.9v10.8h-2.6V8.9h2.6V10.9z"/>
	</g>
</g>
<g class="st0">
	<path class="st18" d="M122.9,9V4.3l2.6-0.8V9h5.6v2.5h-5.6v11.7c0,1.1,0.2,1.8,0.6,2.3s1,0.7,1.9,0.7c0.8,0,1.9,0,3.1-0.1v2.2
		c-2.7,0.4-4.7,0.2-6.1-0.6c-1.4-0.8-2-2.3-2-4.6V11.4V9H122.9z"/>
	<rect x="155.9" y="1.2" class="st18" width="2.6" height="27.1"/>
	<rect x="88.2" y="9" class="st18" width="2.6" height="19.3"/>
	<rect x="88.2" y="3.6" class="st18" width="2.6" height="2.6"/>
	<rect x="117.2" y="9" class="st18" width="2.6" height="19.3"/>
	<rect x="117.2" y="3.6" class="st18" width="2.6" height="2.6"/>
	<path class="st18" d="M150.3,9v2.8c-1.9-2.1-4.6-3.4-7.6-3.4c-5.6,0-10.2,4.6-10.2,10.2s4.6,10.2,10.2,10.2c3,0,5.7-1.3,7.6-3.4
		v2.8h2.6v-8.5v-2.4V9H150.3z M148,24.1c-1.5,1.5-3.3,2.2-5.4,2.2c-2.1,0-3.9-0.7-5.4-2.2s-2.2-3.3-2.2-5.4s0.7-3.9,2.2-5.4
		s3.3-2.2,5.4-2.2c2.1,0,3.9,0.7,5.4,2.2s2.2,3.3,2.2,5.4C150.3,20.8,149.5,22.6,148,24.1"/>
	<path class="st18" d="M85.1,28.3v-8.5v-2.4V1.2h-2.6v10.6C80.7,9.7,78,8.4,75,8.4c-5.6,0-10.2,4.6-10.2,10.2S69.4,28.8,75,28.8
		c3,0,5.7-1.3,7.6-3.4v2.8h2.5V28.3z M82.6,18.6c0,2.1-0.7,4-2.2,5.4c-1.5,1.5-3.3,2.2-5.4,2.2s-3.9-0.7-5.4-2.2s-2.2-3.3-2.2-5.4
		s0.7-3.9,2.2-5.4C71,11.7,72.8,11,75,11c2.1,0,3.9,0.7,5.4,2.2S82.6,16.5,82.6,18.6"/>
	<path class="st18" d="M114.1,9h-2.6v2.8c-1.9-2.1-4.6-3.4-7.6-3.4c-1.1,0-2.1,0.2-3,0.5c-1.6,0.5-3,1.3-4.3,2.6
		c-1.9,2-2.9,4.4-2.9,7.2s1,5.2,2.9,7.2c1.2,1.3,2.7,2.1,4.2,2.6c1,0.3,2,0.5,3,0.5c3,0,5.7-1.3,7.6-3.4v2.1c0,2-0.6,3.6-1.9,4.7
		c-1.3,1.2-3,1.8-5.2,1.8c-3.5,0-5.8-1.2-6.9-3.5L95.2,32c1.6,3.1,4.6,4.7,9.2,4.7c2.7,0,4.9-0.8,6.8-2.4c1.9-1.6,2.9-3.8,2.9-6.6
		v-2.1l0,0V20v-2.4V9L114.1,9z M110.7,22.3c-0.3,0.6-0.8,1.2-1.3,1.7c-0.7,0.7-1.6,1.3-2.5,1.7c-0.9,0.4-1.9,0.6-3,0.6
		c-2.1,0-3.9-0.7-5.4-2.2c0,0,0,0-0.1-0.1c-1.4-1.5-2.1-3.3-2.1-5.4c0-1.3,0.3-2.5,0.8-3.6c0.3-0.7,0.8-1.3,1.4-1.8
		c0.2-0.2,0.3-0.3,0.5-0.5c1-0.8,2.1-1.4,3.3-1.6c0.5-0.1,1-0.1,1.5-0.1c2.1,0,3.9,0.7,5.4,2.2s2.2,3.3,2.2,5.4
		C111.6,20,111.3,21.2,110.7,22.3L110.7,22.3"/>
	<path class="st19" d="M168.1,25.5c0,1.5-1.2,2.8-2.8,2.8c-1.5,0-2.8-1.2-2.8-2.8c0-1.5,1.2-2.8,2.8-2.8
		C166.9,22.7,168.1,24,168.1,25.5"/>
	<rect x="13.6" y="9" class="st19" width="5" height="19.3"/>
	<path class="st19" d="M57.7,25.9c-2,2-4.4,3-7.3,3c-2.9,0-5.3-1-7.2-3c-2-2-3-4.4-3-7.2c0-2.9,1-5.3,3-7.2c2-2,4.4-3,7.2-3
		c2.9,0,5.3,1,7.3,3s3,4.4,3,7.2S59.7,23.9,57.7,25.9 M46.7,22.4c1,1,2.2,1.5,3.7,1.5s2.7-0.5,3.8-1.5c1-1,1.5-2.3,1.5-3.8
		s-0.5-2.8-1.5-3.8s-2.3-1.5-3.8-1.5s-2.7,0.5-3.7,1.5s-1.5,2.3-1.5,3.8S45.7,21.4,46.7,22.4"/>
	<path class="st19" d="M10.5,13.7V9H6.1V3.5h-5V7v2v4.8v5v3c0,3.6,1.8,5.3,3.8,6.1c1.8,0.5,3.6,0.6,4.6,0.5c0.3,0,0.6-0.1,0.9-0.1
		v-4.5c-1,0.1-1.8,0.1-2.4,0c-0.6,0-1.1-0.2-1.5-0.5C6.2,23,6,22.5,6,21.8v-8L10.5,13.7L10.5,13.7z"/>
	<polygon class="st19" points="34,9 26.6,18.5 34.4,28.3 40.2,28.3 32.2,18.5 40,9 	"/>
	<rect x="21.6" y="1.2" class="st19" width="5" height="27.1"/>
	<path class="st19" d="M19.2,4.3c0,1.7-1.4,3.1-3.1,3.1C14.3,7.4,13,6,13,4.3s1.4-3.1,3.1-3.1C17.8,1.2,19.2,2.6,19.2,4.3"/>
</g>
<g>
	<circle class="st20" cx="166.4" cy="25.5" r="2.8"/>
	<g>
		<path class="st20" d="M13.7,28.3V8.9h5v19.5H13.7z"/>
		<path class="st20" d="M58.2,25.9c-2,2-4.4,3-7.3,3c-2.9,0-5.3-1-7.3-3c-2-2-3-4.4-3-7.3c0-2.9,1-5.3,3-7.3c2-2,4.4-3,7.3-3
			c2.9,0,5.3,1,7.3,3s3,4.4,3,7.3C61.2,21.5,60.2,23.9,58.2,25.9z M47.1,22.5c1,1,2.3,1.5,3.8,1.5c1.5,0,2.8-0.5,3.8-1.5
			c1-1,1.5-2.3,1.5-3.9c0-1.6-0.5-2.8-1.5-3.9c-1-1-2.3-1.5-3.8-1.5c-1.5,0-2.8,0.5-3.8,1.5c-1,1-1.5,2.3-1.5,3.9
			C45.6,20.2,46.1,21.4,47.1,22.5z"/>
		<path class="st20" d="M10.6,13.7V8.9H6.2V3.4h-5v3.5v1.9v4.8v5.1v3c0,3.7,1.8,5.4,3.8,6.1c1.8,0.6,3.6,0.6,4.7,0.5
			c0.3,0,0.6-0.1,1-0.1v-4.6c-1,0.1-1.8,0.1-2.4,0c-0.6,0-1.1-0.2-1.5-0.5c-0.3-0.3-0.5-0.8-0.5-1.5v-8.1H10.6z"/>
		<polygon class="st20" points="34.3,8.9 26.8,18.5 34.7,28.3 40.5,28.3 32.5,18.5 40.3,8.9 		"/>
		<rect x="21.8" y="1.1" class="st20" width="5" height="27.3"/>
		<circle class="st20" cx="16.2" cy="4.2" r="3.1"/>
	</g>
</g>
<g>
	<path class="st21" d="M75.5,8.5c2.9,0,5.2,1,7,3.1c1.8,2,2.7,4.4,2.7,7.2c0,0.3,0,0.7-0.1,1.2H68c0.3,2,1.1,3.5,2.5,4.7
		c1.4,1.2,3.2,1.7,5.2,1.7c1.5,0,2.8-0.3,3.8-0.9c1.1-0.6,1.9-1.4,2.4-2.4l2.3,1.3c-0.9,1.4-2,2.5-3.5,3.3s-3.2,1.2-5.1,1.2
		c-3.1,0-5.5-1-7.5-2.9c-1.9-1.9-2.9-4.4-2.9-7.3c0-2.9,0.9-5.3,2.8-7.3C70.1,9.5,72.5,8.5,75.5,8.5z M75.5,11c-2,0-3.7,0.6-5.1,1.8
		C69,14,68.2,15.6,68,17.5h14.5c-0.3-2-1-3.6-2.4-4.8C78.8,11.6,77.2,11,75.5,11z"/>
	<path class="st21" d="M99.6,8.5c2.8,0,5.1,1,7.1,3c2,2,2.9,4.4,2.9,7.2c0,2.9-1,5.3-2.9,7.2c-2,2-4.3,3-7.1,3
		c-3.4,0-6.1-1.4-7.9-4.3v3.8h-2.6V1.2h2.6v11.6C93.5,9.9,96.2,8.5,99.6,8.5z M94,24.2c1.5,1.5,3.3,2.2,5.4,2.2c2.2,0,4-0.7,5.4-2.2
		c1.5-1.5,2.2-3.3,2.2-5.5c0-2.2-0.7-4-2.2-5.5c-1.5-1.5-3.3-2.2-5.4-2.2c-2.2,0-4,0.7-5.4,2.2c-1.5,1.5-2.2,3.3-2.2,5.5
		C91.8,20.8,92.5,22.7,94,24.2z"/>
	<path class="st21" d="M133.2-8172.5v16383 M130.6,8.9v2.9c-1.9-2.1-4.6-3.4-7.6-3.4c-5.7,0-10.3,4.6-10.3,10.3
		c0,5.7,4.6,10.3,10.3,10.3c3,0,5.8-1.3,7.6-3.4v2.9h2.6v-8.5v-2.4V8.9H130.6z M128.4,24.1c-1.5,1.5-3.3,2.2-5.5,2.2s-4-0.7-5.5-2.2
		c-1.5-1.5-2.2-3.3-2.2-5.5s0.7-4,2.2-5.5c1.5-1.5,3.3-2.2,5.5-2.2s4,0.7,5.5,2.2c1.5,1.5,2.2,3.3,2.2,5.5S129.9,22.6,128.4,24.1z"
		/>
	<path class="st21" d="M152.6,9h2.7L147,30.2c-0.8,1.9-1.8,3.4-3.2,4.5c-1.4,1.1-2.9,1.6-4.6,1.5v-2.4c2.3,0.3,4.1-1.1,5.3-4
		l0.5-1.3L136.3,9h2.7l7.3,16.1L152.6,9z"/>
	<path class="st21" d="M158.5,28.4V9h2.6v19.4H158.5z M161,6.2h-2.6V3.6h2.6V6.2z"/>
</g>
</svg>
