<?xml version="1.0" encoding="utf-8"?>
<!-- Generator: Adobe Illustrator 24.0.2, SVG Export Plug-In . SVG Version: 6.00 Build 0)  -->
<svg version="1.1" id="katman_1" xmlns="http://www.w3.org/2000/svg" xmlns:xlink="http://www.w3.org/1999/xlink" x="0px" y="0px"
	 viewBox="0 0 202 37.3" style="enable-background:new 0 0 202 37.3;" xml:space="preserve">
<style type="text/css">
	.st0{display:none;}
	.st1{display:inline;}
	.st2{display:inline;clip-path:url(#SVGID_2_);fill:#313A48;}
	.st3{display:inline;clip-path:url(#SVGID_2_);fill:#024ad0;}
	.st4{fill:#313A48;}
	.st5{fill:#024ad0;}
</style>
<g class="st0">
	<defs>
		<rect id="SVGID_1_" width="202" height="30"/>
	</defs>
	<clipPath id="SVGID_2_" class="st1">
		<use xlink:href="#SVGID_1_"  style="overflow:visible;"/>
	</clipPath>
	<path class="st2" d="M115.4,28.8c-2.9,0-5.4-1-7.3-2.9c-1.9-2-2.9-4.4-2.9-7.3s1-5.3,2.9-7.3c1.9-2,4.4-2.9,7.3-2.9
		c1.9,0,3.6,0.5,5.2,1.4c1.5,0.9,2.6,2.2,3.3,3.7l-2.1,1.2c-0.5-1.2-1.4-2.1-2.5-2.8s-2.5-1-3.9-1c-2.2,0-4,0.7-5.5,2.2
		c-1.5,1.5-2.2,3.3-2.2,5.5s0.7,4,2.2,5.5c1.5,1.5,3.3,2.2,5.5,2.2c1.5,0,2.8-0.3,3.9-1c1.1-0.7,2-1.6,2.7-2.8l2.1,1.2
		c-0.8,1.6-2,2.8-3.5,3.7C119,28.4,117.3,28.8,115.4,28.8"/>
	<path class="st2" d="M145.1,8.9h2.6v19.5h-2.6v-3.8c-1.8,2.9-4.4,4.3-7.9,4.3c-2.8,0-5.1-1-7.1-3c-2-2-2.9-4.4-2.9-7.2
		c0-2.9,1-5.3,2.9-7.2c2-2,4.3-3,7.1-3c3.5,0,6.1,1.4,7.9,4.3V8.9z M131.9,24.1c1.5,1.5,3.3,2.2,5.5,2.2s4-0.7,5.5-2.2
		c1.5-1.5,2.2-3.3,2.2-5.5c0-2.2-0.7-4-2.2-5.5c-1.5-1.5-3.3-2.2-5.5-2.2s-4,0.7-5.5,2.2c-1.5,1.5-2.2,3.3-2.2,5.5
		C129.7,20.8,130.5,22.6,131.9,24.1"/>
	<path class="st2" d="M171.1,8.4c2.9,0,5.2,1,7,3.1c1.8,2,2.7,4.4,2.7,7.2c0,0.3,0,0.7-0.1,1.2h-17.1c0.3,2,1.1,3.5,2.5,4.7
		c1.4,1.2,3.2,1.7,5.2,1.7c1.5,0,2.8-0.3,3.8-0.9c1.1-0.6,1.9-1.4,2.4-2.4l2.3,1.3c-0.9,1.4-2,2.5-3.5,3.3c-1.5,0.8-3.2,1.2-5.1,1.2
		c-3.1,0-5.6-1-7.5-2.9c-1.9-1.9-2.9-4.4-2.9-7.3c0-2.9,0.9-5.3,2.8-7.3C165.7,9.4,168.1,8.4,171.1,8.4 M171.1,10.9
		c-2,0-3.7,0.6-5.1,1.8c-1.4,1.2-2.2,2.8-2.4,4.7h14.5c-0.3-2.1-1.1-3.6-2.4-4.8C174.4,11.5,172.9,10.9,171.1,10.9"/>
	<path class="st2" d="M88.3,8.9V4.2l2.6-0.8v5.5h5.6v2.5h-5.6v11.8c0,1.1,0.2,1.8,0.6,2.3c0.4,0.5,1,0.7,1.9,0.7
		c0.8,0,1.9,0,3.1-0.1v2.3c-2.7,0.4-4.8,0.2-6.1-0.6c-1.4-0.8-2-2.3-2-4.6V11.4V8.9z"/>
	<path class="st2" d="M184.4,8.9V4.2l2.6-0.8v5.5h5.6v2.5H187v11.8c0,1.1,0.2,1.8,0.6,2.3c0.4,0.5,1,0.7,1.9,0.7
		c0.8,0,1.9,0,3.1-0.1v2.3c-2.7,0.4-4.8,0.2-6.1-0.6c-1.4-0.8-2-2.3-2-4.6V11.4V8.9z"/>
	<rect x="99.5" y="8.9" class="st2" width="2.6" height="19.5"/>
	<rect x="99.5" y="3.5" class="st2" width="2.6" height="2.6"/>
	<path class="st2" d="M75.4,8.4c2.9,0,5.2,1,7,3.1c1.8,2,2.7,4.4,2.7,7.2c0,0.3,0,0.7-0.1,1.2H67.9c0.3,2,1.1,3.5,2.5,4.7
		c1.4,1.2,3.2,1.7,5.2,1.7c1.5,0,2.8-0.3,3.8-0.9c1.1-0.6,1.9-1.4,2.4-2.4l2.3,1.3c-0.9,1.4-2,2.5-3.5,3.3c-1.5,0.8-3.2,1.2-5.1,1.2
		c-3.1,0-5.6-1-7.5-2.9c-1.9-1.9-2.9-4.4-2.9-7.3c0-2.9,0.9-5.3,2.8-7.3C70,9.4,72.5,8.4,75.4,8.4 M75.4,10.9c-2,0-3.7,0.6-5.1,1.8
		c-1.4,1.2-2.2,2.8-2.4,4.7h14.5c-0.3-2.1-1-3.6-2.4-4.8C78.8,11.5,77.2,10.9,75.4,10.9"/>
	<path class="st3" d="M200.8,25.6c0,1.5-1.3,2.8-2.8,2.8c-1.5,0-2.8-1.3-2.8-2.8s1.3-2.8,2.8-2.8C199.6,22.8,200.8,24,200.8,25.6"/>
	<rect x="13.7" y="8.9" class="st3" width="5" height="19.5"/>
	<path class="st3" d="M58.1,25.9c-2,2-4.4,3-7.3,3c-2.9,0-5.3-1-7.3-3c-2-2-3-4.4-3-7.3s1-5.3,3-7.3c2-2,4.4-3,7.3-3
		c2.9,0,5.3,1,7.3,3c2,2,3,4.4,3,7.3S60.1,23.9,58.1,25.9 M47,22.5c1,1,2.3,1.5,3.8,1.5c1.5,0,2.8-0.5,3.8-1.5c1-1,1.5-2.3,1.5-3.9
		c0-1.6-0.5-2.8-1.5-3.9c-1-1-2.3-1.5-3.8-1.5c-1.5,0-2.8,0.5-3.8,1.5c-1,1-1.5,2.3-1.5,3.9C45.5,20.2,46,21.5,47,22.5"/>
	<path class="st3" d="M10.6,13.7V8.9H6.2V3.4h-5v3.5v1.9v4.8v5.1v3c0,3.7,1.8,5.4,3.8,6.1c1.8,0.6,3.6,0.6,4.7,0.5
		c0.3,0,0.6-0.1,1-0.1v-4.6c-1,0.1-1.8,0.1-2.4,0c-0.6,0-1.1-0.2-1.5-0.5c-0.3-0.3-0.5-0.8-0.5-1.5v-8.1H10.6z"/>
	<polygon class="st3" points="34.3,8.9 26.8,18.5 34.7,28.4 40.5,28.4 32.4,18.5 40.3,8.9 	"/>
	<rect x="21.8" y="1.1" class="st3" width="5" height="27.3"/>
	<path class="st3" d="M19.3,4.2c0,1.7-1.4,3.1-3.1,3.1c-1.7,0-3.1-1.4-3.1-3.1c0-1.7,1.4-3.1,3.1-3.1C17.9,1.1,19.3,2.5,19.3,4.2"/>
	<path class="st2" d="M153.3,10.9c1.6-1.5,3-2.1,6.2-2.3v2.5c-1.8,0-3.2,0.5-4.4,1.6c-1.2,1-1.8,2.7-1.8,4.9v10.8h-2.6V8.9h2.6V10.9
		z"/>
</g>
<g>
	<path class="st4" d="M122.9,9V4.3l2.6-0.8V9h5.6v2.5h-5.6v11.7c0,1.1,0.2,1.8,0.6,2.3c0.4,0.5,1,0.7,1.9,0.7c0.8,0,1.9,0,3.1-0.1
		v2.2c-2.7,0.4-4.7,0.2-6.1-0.6c-1.4-0.8-2-2.3-2-4.6V11.4V9z"/>
	<rect x="155.9" y="1.2" class="st4" width="2.6" height="27.1"/>
	<rect x="88.2" y="9" class="st4" width="2.6" height="19.3"/>
	<rect x="88.2" y="3.6" class="st4" width="2.6" height="2.6"/>
	<rect x="117.2" y="9" class="st4" width="2.6" height="19.3"/>
	<rect x="117.2" y="3.6" class="st4" width="2.6" height="2.6"/>
	<path class="st4" d="M150.3,9v2.8c-1.9-2.1-4.6-3.4-7.6-3.4c-5.6,0-10.2,4.6-10.2,10.2c0,5.6,4.6,10.2,10.2,10.2
		c3,0,5.7-1.3,7.6-3.4v2.8h2.6v-8.5v-2.4V9H150.3z M148,24.1c-1.5,1.5-3.3,2.2-5.4,2.2c-2.1,0-3.9-0.7-5.4-2.2
		c-1.5-1.5-2.2-3.3-2.2-5.4c0-2.1,0.7-3.9,2.2-5.4c1.5-1.5,3.3-2.2,5.4-2.2c2.1,0,3.9,0.7,5.4,2.2c1.5,1.5,2.2,3.3,2.2,5.4
		C150.3,20.8,149.5,22.6,148,24.1"/>
	<path class="st4" d="M85.1,28.3v-8.5v-2.4V1.2h-2.6v10.6C80.7,9.7,78,8.4,75,8.4c-5.6,0-10.2,4.6-10.2,10.2
		c0,5.6,4.6,10.2,10.2,10.2c3,0,5.7-1.3,7.6-3.4v2.8H85.1z M82.6,18.6c0,2.1-0.7,4-2.2,5.4c-1.5,1.5-3.3,2.2-5.4,2.2
		c-2.1,0-3.9-0.7-5.4-2.2c-1.5-1.5-2.2-3.3-2.2-5.4c0-2.1,0.7-3.9,2.2-5.4C71,11.7,72.8,11,75,11c2.1,0,3.9,0.7,5.4,2.2
		C81.9,14.7,82.6,16.5,82.6,18.6"/>
	<path class="st4" d="M114.1,9h-2.6v2.8c-1.9-2.1-4.6-3.4-7.6-3.4c-1.1,0-2.1,0.2-3,0.5c-1.6,0.5-3,1.3-4.3,2.6
		c-1.9,2-2.9,4.4-2.9,7.2c0,2.8,1,5.2,2.9,7.2c1.2,1.3,2.7,2.1,4.2,2.6c1,0.3,2,0.5,3,0.5c3,0,5.7-1.3,7.6-3.4v2.1
		c0,2-0.6,3.6-1.9,4.7c-1.3,1.2-3,1.8-5.2,1.8c-3.5,0-5.8-1.2-6.9-3.5l-2.2,1.3c1.6,3.1,4.6,4.7,9.2,4.7c2.7,0,4.9-0.8,6.8-2.4
		c1.9-1.6,2.9-3.8,2.9-6.6v-2.1h0v-5.6v-2.4L114.1,9L114.1,9z M110.7,22.3c-0.3,0.6-0.8,1.2-1.3,1.7c-0.7,0.7-1.6,1.3-2.5,1.7
		c-0.9,0.4-1.9,0.6-3,0.6c-2.1,0-3.9-0.7-5.4-2.2c0,0,0,0-0.1-0.1c-1.4-1.5-2.1-3.3-2.1-5.4c0-1.3,0.3-2.5,0.8-3.6
		c0.3-0.7,0.8-1.3,1.4-1.8c0.2-0.2,0.3-0.3,0.5-0.5c1-0.8,2.1-1.4,3.3-1.6c0.5-0.1,1-0.1,1.5-0.1c2.1,0,3.9,0.7,5.4,2.2
		c1.5,1.5,2.2,3.3,2.2,5.4C111.6,20,111.3,21.2,110.7,22.3C110.7,22.3,110.7,22.3,110.7,22.3"/>
	<path class="st5" d="M168.1,25.5c0,1.5-1.2,2.8-2.8,2.8c-1.5,0-2.8-1.2-2.8-2.8c0-1.5,1.2-2.8,2.8-2.8
		C166.9,22.7,168.1,24,168.1,25.5"/>
	<rect x="13.6" y="9" class="st5" width="5" height="19.3"/>
	<path class="st5" d="M57.7,25.9c-2,2-4.4,3-7.3,3c-2.9,0-5.3-1-7.2-3c-2-2-3-4.4-3-7.2c0-2.9,1-5.3,3-7.2c2-2,4.4-3,7.2-3
		c2.9,0,5.3,1,7.3,3c2,2,3,4.4,3,7.2C60.7,21.5,59.7,23.9,57.7,25.9 M46.7,22.4c1,1,2.2,1.5,3.7,1.5c1.5,0,2.7-0.5,3.8-1.5
		c1-1,1.5-2.3,1.5-3.8s-0.5-2.8-1.5-3.8c-1-1-2.3-1.5-3.8-1.5c-1.5,0-2.7,0.5-3.7,1.5c-1,1-1.5,2.3-1.5,3.8S45.7,21.4,46.7,22.4"/>
	<path class="st5" d="M10.5,13.7V9H6.1V3.5h-5V7V9v4.8v5v3c0,3.6,1.8,5.3,3.8,6.1c1.8,0.5,3.6,0.6,4.6,0.5c0.3,0,0.6-0.1,0.9-0.1
		v-4.5c-1,0.1-1.8,0.1-2.4,0c-0.6,0-1.1-0.2-1.5-0.5c-0.3-0.3-0.5-0.8-0.5-1.5v-8H10.5z"/>
	<polygon class="st5" points="34,9 26.6,18.5 34.4,28.3 40.2,28.3 32.2,18.5 40,9 	"/>
	<rect x="21.6" y="1.2" class="st5" width="5" height="27.1"/>
	<path class="st5" d="M19.2,4.3c0,1.7-1.4,3.1-3.1,3.1C14.3,7.4,13,6,13,4.3c0-1.7,1.4-3.1,3.1-3.1C17.8,1.2,19.2,2.6,19.2,4.3"/>
</g>
</svg>
