<?xml version="1.0" encoding="utf-8"?>
<!-- Generator: Adobe Illustrator 27.6.1, SVG Export Plug-In . SVG Version: 6.00 Build 0)  -->
<svg version="1.1" id="katman_1" xmlns="http://www.w3.org/2000/svg" xmlns:xlink="http://www.w3.org/1999/xlink" x="0px" y="0px"
	 viewBox="0 0 202 37.3" style="enable-background:new 0 0 202 37.3;" xml:space="preserve">
<style type="text/css">
	.st0{display:none;}
	.st1{display:inline;}
	.st2{clip-path:url(#SVGID_00000066505224762328516670000018239784497168959923_);fill:#313A48;}
	.st3{clip-path:url(#SVGID_00000110459287824597571810000004915741401766913721_);fill:#313A48;}
	.st4{clip-path:url(#SVGID_00000085236022584178575050000008809984304813383608_);fill:#313A48;}
	.st5{clip-path:url(#SVGID_00000059296701162026602490000003748198205280216205_);fill:#313A48;}
	.st6{clip-path:url(#SVGID_00000169550767135507537170000018219944958066284210_);fill:#313A48;}
	.st7{clip-path:url(#SVGID_00000025435161429603038940000004810143618722877828_);fill:#313A48;}
	.st8{clip-path:url(#SVGID_00000042705476389764967260000011134676194387709589_);fill:#313A48;}
	.st9{clip-path:url(#SVGID_00000102522939364728173960000013402458858375001518_);fill:#313A48;}
	.st10{clip-path:url(#SVGID_00000054949291105470173200000002220880534712539285_);fill:#024AD0;}
	.st11{clip-path:url(#SVGID_00000114758955615487984550000011045117076231366530_);fill:#024AD0;}
	.st12{clip-path:url(#SVGID_00000046313122553701828760000015902817742221475461_);fill:#024AD0;}
	.st13{clip-path:url(#SVGID_00000165195705367460354040000004861030778017146282_);fill:#024AD0;}
	.st14{clip-path:url(#SVGID_00000104691865817953784240000012941039936568927888_);fill:#024AD0;}
	.st15{clip-path:url(#SVGID_00000051368989546820604260000005140089690784669827_);fill:#024AD0;}
	.st16{clip-path:url(#SVGID_00000083799331648531923570000012882629085974464129_);fill:#024AD0;}
	.st17{clip-path:url(#SVGID_00000060026466558291321780000011217113922171632280_);fill:#313A48;}
	.st18{display:inline;fill:#313A48;}
	.st19{display:inline;fill:#024AD0;}
	.st20{fill:#FFFFFF;}
</style>
<g class="st0">
	<g class="st1">
		<g>
			<g>
				<g>
					<defs>
						<rect id="SVGID_1_" width="202" height="30"/>
					</defs>
					<clipPath id="SVGID_00000126306108135753486290000018261873973833895061_">
						<use xlink:href="#SVGID_1_"  style="overflow:visible;"/>
					</clipPath>
					<path style="clip-path:url(#SVGID_00000126306108135753486290000018261873973833895061_);fill:#313A48;" d="M115.4,28.8
						c-2.9,0-5.4-1-7.3-2.9c-1.9-2-2.9-4.4-2.9-7.3s1-5.3,2.9-7.3s4.4-2.9,7.3-2.9c1.9,0,3.6,0.5,5.2,1.4c1.5,0.9,2.6,2.2,3.3,3.7
						l-2.1,1.2c-0.5-1.2-1.4-2.1-2.5-2.8s-2.5-1-3.9-1c-2.2,0-4,0.7-5.5,2.2s-2.2,3.3-2.2,5.5s0.7,4,2.2,5.5s3.3,2.2,5.5,2.2
						c1.5,0,2.8-0.3,3.9-1s2-1.6,2.7-2.8l2.1,1.2c-0.8,1.6-2,2.8-3.5,3.7C119,28.4,117.3,28.8,115.4,28.8"/>
				</g>
			</g>
		</g>
	</g>
	<g class="st1">
		<g>
			<g>
				<g>
					<defs>
						<rect id="SVGID_00000028293788441935439790000005476353025943465632_" width="202" height="30"/>
					</defs>
					<clipPath id="SVGID_00000031169212901168771900000017430200112739184026_">
						<use xlink:href="#SVGID_00000028293788441935439790000005476353025943465632_"  style="overflow:visible;"/>
					</clipPath>
					<path style="clip-path:url(#SVGID_00000031169212901168771900000017430200112739184026_);fill:#313A48;" d="M145.1,8.9h2.6
						v19.5h-2.6v-3.8c-1.8,2.9-4.4,4.3-7.9,4.3c-2.8,0-5.1-1-7.1-3s-2.9-4.4-2.9-7.2c0-2.9,1-5.3,2.9-7.2c2-2,4.3-3,7.1-3
						c3.5,0,6.1,1.4,7.9,4.3V8.9z M131.9,24.1c1.5,1.5,3.3,2.2,5.5,2.2s4-0.7,5.5-2.2s2.2-3.3,2.2-5.5s-0.7-4-2.2-5.5
						s-3.3-2.2-5.5-2.2s-4,0.7-5.5,2.2s-2.2,3.3-2.2,5.5S130.5,22.6,131.9,24.1"/>
				</g>
			</g>
		</g>
	</g>
	<g class="st1">
		<g>
			<g>
				<g>
					<defs>
						<rect id="SVGID_00000138573093937445428040000017753834489404696713_" width="202" height="30"/>
					</defs>
					<clipPath id="SVGID_00000158715130756156595180000003672454552516379824_">
						<use xlink:href="#SVGID_00000138573093937445428040000017753834489404696713_"  style="overflow:visible;"/>
					</clipPath>
					<path style="clip-path:url(#SVGID_00000158715130756156595180000003672454552516379824_);fill:#313A48;" d="M171.1,8.4
						c2.9,0,5.2,1,7,3.1c1.8,2,2.7,4.4,2.7,7.2c0,0.3,0,0.7-0.1,1.2h-17.1c0.3,2,1.1,3.5,2.5,4.7s3.2,1.7,5.2,1.7
						c1.5,0,2.8-0.3,3.8-0.9c1.1-0.6,1.9-1.4,2.4-2.4l2.3,1.3c-0.9,1.4-2,2.5-3.5,3.3s-3.2,1.2-5.1,1.2c-3.1,0-5.6-1-7.5-2.9
						s-2.9-4.4-2.9-7.3s0.9-5.3,2.8-7.3C165.7,9.4,168.1,8.4,171.1,8.4 M171.1,10.9c-2,0-3.7,0.6-5.1,1.8c-1.4,1.2-2.2,2.8-2.4,4.7
						h14.5c-0.3-2.1-1.1-3.6-2.4-4.8C174.4,11.5,172.9,10.9,171.1,10.9"/>
				</g>
			</g>
		</g>
	</g>
	<g class="st1">
		<g>
			<g>
				<g>
					<defs>
						<rect id="SVGID_00000101796701163021135640000008591888652306132120_" width="202" height="30"/>
					</defs>
					<clipPath id="SVGID_00000005258088385649051580000009483978964447234986_">
						<use xlink:href="#SVGID_00000101796701163021135640000008591888652306132120_"  style="overflow:visible;"/>
					</clipPath>
					<path style="clip-path:url(#SVGID_00000005258088385649051580000009483978964447234986_);fill:#313A48;" d="M88.3,8.9V4.2
						l2.6-0.8v5.5h5.6v2.5h-5.6v11.8c0,1.1,0.2,1.8,0.6,2.3s1,0.7,1.9,0.7c0.8,0,1.9,0,3.1-0.1v2.3c-2.7,0.4-4.8,0.2-6.1-0.6
						c-1.4-0.8-2-2.3-2-4.6V11.4L88.3,8.9L88.3,8.9z"/>
				</g>
			</g>
		</g>
	</g>
	<g class="st1">
		<g>
			<g>
				<g>
					<defs>
						<rect id="SVGID_00000120530885270696872340000001867844978109218952_" width="202" height="30"/>
					</defs>
					<clipPath id="SVGID_00000003096905405736871140000005705849968394008241_">
						<use xlink:href="#SVGID_00000120530885270696872340000001867844978109218952_"  style="overflow:visible;"/>
					</clipPath>
					<path style="clip-path:url(#SVGID_00000003096905405736871140000005705849968394008241_);fill:#313A48;" d="M184.4,8.9V4.2
						l2.6-0.8v5.5h5.6v2.5H187v11.8c0,1.1,0.2,1.8,0.6,2.3c0.4,0.5,1,0.7,1.9,0.7c0.8,0,1.9,0,3.1-0.1v2.3c-2.7,0.4-4.8,0.2-6.1-0.6
						c-1.4-0.8-2-2.3-2-4.6V11.4V8.9H184.4z"/>
				</g>
			</g>
		</g>
	</g>
	<g class="st1">
		<g>
			<g>
				<g>
					<defs>
						<rect id="SVGID_00000016057601612708996540000014228052586458239652_" width="202" height="30"/>
					</defs>
					<clipPath id="SVGID_00000051381188745297897840000015985972442104404897_">
						<use xlink:href="#SVGID_00000016057601612708996540000014228052586458239652_"  style="overflow:visible;"/>
					</clipPath>
					
						<rect x="99.5" y="8.9" style="clip-path:url(#SVGID_00000051381188745297897840000015985972442104404897_);fill:#313A48;" width="2.6" height="19.5"/>
				</g>
			</g>
		</g>
	</g>
	<g class="st1">
		<g>
			<g>
				<g>
					<defs>
						<rect id="SVGID_00000111164316873098924890000017656390731043904183_" width="202" height="30"/>
					</defs>
					<clipPath id="SVGID_00000018204994071290010840000003190256193589277354_">
						<use xlink:href="#SVGID_00000111164316873098924890000017656390731043904183_"  style="overflow:visible;"/>
					</clipPath>
					
						<rect x="99.5" y="3.5" style="clip-path:url(#SVGID_00000018204994071290010840000003190256193589277354_);fill:#313A48;" width="2.6" height="2.6"/>
				</g>
			</g>
		</g>
	</g>
	<g class="st1">
		<g>
			<g>
				<g>
					<defs>
						<rect id="SVGID_00000085217027961780027910000006718783401148900529_" width="202" height="30"/>
					</defs>
					<clipPath id="SVGID_00000171695887774976166170000014297134547832110991_">
						<use xlink:href="#SVGID_00000085217027961780027910000006718783401148900529_"  style="overflow:visible;"/>
					</clipPath>
					<path style="clip-path:url(#SVGID_00000171695887774976166170000014297134547832110991_);fill:#313A48;" d="M75.4,8.4
						c2.9,0,5.2,1,7,3.1c1.8,2,2.7,4.4,2.7,7.2c0,0.3,0,0.7-0.1,1.2H67.9c0.3,2,1.1,3.5,2.5,4.7s3.2,1.7,5.2,1.7
						c1.5,0,2.8-0.3,3.8-0.9c1.1-0.6,1.9-1.4,2.4-2.4l2.3,1.3c-0.9,1.4-2,2.5-3.5,3.3s-3.2,1.2-5.1,1.2c-3.1,0-5.6-1-7.5-2.9
						s-2.9-4.4-2.9-7.3s0.9-5.3,2.8-7.3C70,9.4,72.5,8.4,75.4,8.4 M75.4,10.9c-2,0-3.7,0.6-5.1,1.8s-2.2,2.8-2.4,4.7h14.5
						c-0.3-2.1-1-3.6-2.4-4.8C78.8,11.5,77.2,10.9,75.4,10.9"/>
				</g>
			</g>
		</g>
	</g>
	<g class="st1">
		<g>
			<g>
				<g>
					<defs>
						<rect id="SVGID_00000069364934834771391070000011185496142162110386_" width="202" height="30"/>
					</defs>
					<clipPath id="SVGID_00000152968345213141145110000005526063914660909469_">
						<use xlink:href="#SVGID_00000069364934834771391070000011185496142162110386_"  style="overflow:visible;"/>
					</clipPath>
					<path style="clip-path:url(#SVGID_00000152968345213141145110000005526063914660909469_);fill:#024AD0;" d="M200.8,25.6
						c0,1.5-1.3,2.8-2.8,2.8s-2.8-1.3-2.8-2.8s1.3-2.8,2.8-2.8C199.6,22.8,200.8,24,200.8,25.6"/>
				</g>
			</g>
		</g>
	</g>
	<g class="st1">
		<g>
			<g>
				<g>
					<defs>
						<rect id="SVGID_00000096738464027142649460000016248228667974119079_" width="202" height="30"/>
					</defs>
					<clipPath id="SVGID_00000178896515735648809560000005437408265294816690_">
						<use xlink:href="#SVGID_00000096738464027142649460000016248228667974119079_"  style="overflow:visible;"/>
					</clipPath>
					
						<rect x="13.7" y="8.9" style="clip-path:url(#SVGID_00000178896515735648809560000005437408265294816690_);fill:#024AD0;" width="5" height="19.5"/>
				</g>
			</g>
		</g>
	</g>
	<g class="st1">
		<g>
			<g>
				<g>
					<defs>
						<rect id="SVGID_00000059312347585240737010000017672329819539711114_" width="202" height="30"/>
					</defs>
					<clipPath id="SVGID_00000090291041382474205050000005420555150088769413_">
						<use xlink:href="#SVGID_00000059312347585240737010000017672329819539711114_"  style="overflow:visible;"/>
					</clipPath>
					<path style="clip-path:url(#SVGID_00000090291041382474205050000005420555150088769413_);fill:#024AD0;" d="M58.1,25.9
						c-2,2-4.4,3-7.3,3c-2.9,0-5.3-1-7.3-3s-3-4.4-3-7.3s1-5.3,3-7.3s4.4-3,7.3-3c2.9,0,5.3,1,7.3,3s3,4.4,3,7.3
						S60.1,23.9,58.1,25.9 M47,22.5c1,1,2.3,1.5,3.8,1.5s2.8-0.5,3.8-1.5s1.5-2.3,1.5-3.9s-0.5-2.8-1.5-3.9c-1-1-2.3-1.5-3.8-1.5
						S48,13.7,47,14.7s-1.5,2.3-1.5,3.9S46,21.5,47,22.5"/>
				</g>
			</g>
		</g>
	</g>
	<g class="st1">
		<g>
			<g>
				<g>
					<defs>
						<rect id="SVGID_00000101784817309171451710000008601359178153374855_" width="202" height="30"/>
					</defs>
					<clipPath id="SVGID_00000110446924765407576470000004946100123153683358_">
						<use xlink:href="#SVGID_00000101784817309171451710000008601359178153374855_"  style="overflow:visible;"/>
					</clipPath>
					<path style="clip-path:url(#SVGID_00000110446924765407576470000004946100123153683358_);fill:#024AD0;" d="M10.6,13.7V8.9H6.2
						V3.4h-5v3.5v1.9v4.8v5.1v3c0,3.7,1.8,5.4,3.8,6.1c1.8,0.6,3.6,0.6,4.7,0.5c0.3,0,0.6-0.1,1-0.1v-4.6c-1,0.1-1.8,0.1-2.4,0
						c-0.6,0-1.1-0.2-1.5-0.5c-0.3-0.3-0.5-0.8-0.5-1.5v-8.1h4.3C10.6,13.5,10.6,13.7,10.6,13.7z"/>
				</g>
			</g>
		</g>
	</g>
	<g class="st1">
		<g>
			<g>
				<g>
					<defs>
						<rect id="SVGID_00000015313472498979083330000002989995077790785936_" width="202" height="30"/>
					</defs>
					<clipPath id="SVGID_00000004548544989918770690000010665534908139106460_">
						<use xlink:href="#SVGID_00000015313472498979083330000002989995077790785936_"  style="overflow:visible;"/>
					</clipPath>
					<polygon style="clip-path:url(#SVGID_00000004548544989918770690000010665534908139106460_);fill:#024AD0;" points="34.3,8.9 
						26.8,18.5 34.7,28.4 40.5,28.4 32.4,18.5 40.3,8.9 					"/>
				</g>
			</g>
		</g>
	</g>
	<g class="st1">
		<g>
			<g>
				<g>
					<defs>
						<rect id="SVGID_00000090273080775018734150000013779988616567559564_" width="202" height="30"/>
					</defs>
					<clipPath id="SVGID_00000154399477762907511760000007335170719639541651_">
						<use xlink:href="#SVGID_00000090273080775018734150000013779988616567559564_"  style="overflow:visible;"/>
					</clipPath>
					
						<rect x="21.8" y="1.1" style="clip-path:url(#SVGID_00000154399477762907511760000007335170719639541651_);fill:#024AD0;" width="5" height="27.3"/>
				</g>
			</g>
		</g>
	</g>
	<g class="st1">
		<g>
			<g>
				<g>
					<defs>
						<rect id="SVGID_00000001655493115327864790000002297409768818657201_" width="202" height="30"/>
					</defs>
					<clipPath id="SVGID_00000040568334105147715490000001610443336916402818_">
						<use xlink:href="#SVGID_00000001655493115327864790000002297409768818657201_"  style="overflow:visible;"/>
					</clipPath>
					<path style="clip-path:url(#SVGID_00000040568334105147715490000001610443336916402818_);fill:#024AD0;" d="M19.3,4.2
						c0,1.7-1.4,3.1-3.1,3.1s-3.1-1.4-3.1-3.1s1.4-3.1,3.1-3.1C17.9,1.1,19.3,2.5,19.3,4.2"/>
				</g>
			</g>
		</g>
	</g>
	<g class="st1">
		<g>
			<g>
				<g>
					<defs>
						<rect id="SVGID_00000029013579649704279430000012098085043213988772_" width="202" height="30"/>
					</defs>
					<clipPath id="SVGID_00000108995239863388346220000000088764652340909699_">
						<use xlink:href="#SVGID_00000029013579649704279430000012098085043213988772_"  style="overflow:visible;"/>
					</clipPath>
					<path style="clip-path:url(#SVGID_00000108995239863388346220000000088764652340909699_);fill:#313A48;" d="M153.3,10.9
						c1.6-1.5,3-2.1,6.2-2.3v2.5c-1.8,0-3.2,0.5-4.4,1.6c-1.2,1-1.8,2.7-1.8,4.9v10.8h-2.6V8.9h2.6V10.9z"/>
				</g>
			</g>
		</g>
	</g>
</g>
<g class="st0">
	<path class="st18" d="M122.9,9V4.3l2.6-0.8V9h5.6v2.5h-5.6v11.7c0,1.1,0.2,1.8,0.6,2.3s1,0.7,1.9,0.7c0.8,0,1.9,0,3.1-0.1v2.2
		c-2.7,0.4-4.7,0.2-6.1-0.6c-1.4-0.8-2-2.3-2-4.6V11.4V9H122.9z"/>
	<rect x="155.9" y="1.2" class="st18" width="2.6" height="27.1"/>
	<rect x="88.2" y="9" class="st18" width="2.6" height="19.3"/>
	<rect x="88.2" y="3.6" class="st18" width="2.6" height="2.6"/>
	<rect x="117.2" y="9" class="st18" width="2.6" height="19.3"/>
	<rect x="117.2" y="3.6" class="st18" width="2.6" height="2.6"/>
	<path class="st18" d="M150.3,9v2.8c-1.9-2.1-4.6-3.4-7.6-3.4c-5.6,0-10.2,4.6-10.2,10.2s4.6,10.2,10.2,10.2c3,0,5.7-1.3,7.6-3.4
		v2.8h2.6v-8.5v-2.4V9H150.3z M148,24.1c-1.5,1.5-3.3,2.2-5.4,2.2c-2.1,0-3.9-0.7-5.4-2.2s-2.2-3.3-2.2-5.4s0.7-3.9,2.2-5.4
		s3.3-2.2,5.4-2.2c2.1,0,3.9,0.7,5.4,2.2s2.2,3.3,2.2,5.4C150.3,20.8,149.5,22.6,148,24.1"/>
	<path class="st18" d="M85.1,28.3v-8.5v-2.4V1.2h-2.6v10.6C80.7,9.7,78,8.4,75,8.4c-5.6,0-10.2,4.6-10.2,10.2S69.4,28.8,75,28.8
		c3,0,5.7-1.3,7.6-3.4v2.8h2.5V28.3z M82.6,18.6c0,2.1-0.7,4-2.2,5.4c-1.5,1.5-3.3,2.2-5.4,2.2s-3.9-0.7-5.4-2.2s-2.2-3.3-2.2-5.4
		s0.7-3.9,2.2-5.4C71,11.7,72.8,11,75,11c2.1,0,3.9,0.7,5.4,2.2S82.6,16.5,82.6,18.6"/>
	<path class="st18" d="M114.1,9h-2.6v2.8c-1.9-2.1-4.6-3.4-7.6-3.4c-1.1,0-2.1,0.2-3,0.5c-1.6,0.5-3,1.3-4.3,2.6
		c-1.9,2-2.9,4.4-2.9,7.2s1,5.2,2.9,7.2c1.2,1.3,2.7,2.1,4.2,2.6c1,0.3,2,0.5,3,0.5c3,0,5.7-1.3,7.6-3.4v2.1c0,2-0.6,3.6-1.9,4.7
		c-1.3,1.2-3,1.8-5.2,1.8c-3.5,0-5.8-1.2-6.9-3.5L95.2,32c1.6,3.1,4.6,4.7,9.2,4.7c2.7,0,4.9-0.8,6.8-2.4c1.9-1.6,2.9-3.8,2.9-6.6
		v-2.1l0,0V20v-2.4V9L114.1,9z M110.7,22.3c-0.3,0.6-0.8,1.2-1.3,1.7c-0.7,0.7-1.6,1.3-2.5,1.7c-0.9,0.4-1.9,0.6-3,0.6
		c-2.1,0-3.9-0.7-5.4-2.2c0,0,0,0-0.1-0.1c-1.4-1.5-2.1-3.3-2.1-5.4c0-1.3,0.3-2.5,0.8-3.6c0.3-0.7,0.8-1.3,1.4-1.8
		c0.2-0.2,0.3-0.3,0.5-0.5c1-0.8,2.1-1.4,3.3-1.6c0.5-0.1,1-0.1,1.5-0.1c2.1,0,3.9,0.7,5.4,2.2s2.2,3.3,2.2,5.4
		C111.6,20,111.3,21.2,110.7,22.3L110.7,22.3"/>
	<path class="st19" d="M168.1,25.5c0,1.5-1.2,2.8-2.8,2.8c-1.5,0-2.8-1.2-2.8-2.8c0-1.5,1.2-2.8,2.8-2.8
		C166.9,22.7,168.1,24,168.1,25.5"/>
	<rect x="13.6" y="9" class="st19" width="5" height="19.3"/>
	<path class="st19" d="M57.7,25.9c-2,2-4.4,3-7.3,3c-2.9,0-5.3-1-7.2-3c-2-2-3-4.4-3-7.2c0-2.9,1-5.3,3-7.2c2-2,4.4-3,7.2-3
		c2.9,0,5.3,1,7.3,3s3,4.4,3,7.2S59.7,23.9,57.7,25.9 M46.7,22.4c1,1,2.2,1.5,3.7,1.5s2.7-0.5,3.8-1.5c1-1,1.5-2.3,1.5-3.8
		s-0.5-2.8-1.5-3.8s-2.3-1.5-3.8-1.5s-2.7,0.5-3.7,1.5s-1.5,2.3-1.5,3.8S45.7,21.4,46.7,22.4"/>
	<path class="st19" d="M10.5,13.7V9H6.1V3.5h-5V7v2v4.8v5v3c0,3.6,1.8,5.3,3.8,6.1c1.8,0.5,3.6,0.6,4.6,0.5c0.3,0,0.6-0.1,0.9-0.1
		v-4.5c-1,0.1-1.8,0.1-2.4,0c-0.6,0-1.1-0.2-1.5-0.5C6.2,23,6,22.5,6,21.8v-8L10.5,13.7L10.5,13.7z"/>
	<polygon class="st19" points="34,9 26.6,18.5 34.4,28.3 40.2,28.3 32.2,18.5 40,9 	"/>
	<rect x="21.6" y="1.2" class="st19" width="5" height="27.1"/>
	<path class="st19" d="M19.2,4.3c0,1.7-1.4,3.1-3.1,3.1C14.3,7.4,13,6,13,4.3s1.4-3.1,3.1-3.1C17.8,1.2,19.2,2.6,19.2,4.3"/>
</g>
<g>
	<g>
		<path class="st20" d="M58,25.8c-2,2-4.4,3-7.3,3c-2.9,0-5.3-1-7.3-3s-3-4.4-3-7.3s1-5.3,3-7.3s4.4-3,7.3-3c2.9,0,5.3,1,7.3,3
			s3,4.4,3,7.3S60,23.8,58,25.8z M47,22.4c1,1,2.2,1.5,3.8,1.5c1.5,0,2.8-0.5,3.8-1.5s1.5-2.3,1.5-3.8c0-1.6-0.5-2.8-1.5-3.8
			s-2.3-1.5-3.8-1.5S48,13.8,47,14.8s-1.5,2.3-1.5,3.8S46,21.4,47,22.4z"/>
		<path class="st20" d="M10.6,12.6V9.9c0-0.6-0.5-1-1-1H6.2V4.7c0-0.7-0.6-1.3-1.3-1.3H2.5C1.8,3.4,1.2,4,1.2,4.7v2.2v1.9v4.8v5.1v3
			C1.2,25.3,3,27,5,27.8c1.8,0.6,3.6,0.6,4.6,0.5l0,0c0.5,0,0.9-0.5,0.9-1v-2.5c0-0.6-0.5-1-1.1-1c-0.5,0-1,0-1.4,0
			c-0.6,0-1.1-0.2-1.5-0.5C6.2,23,6,22.5,6,21.8v-8.1h3.4C10.1,13.6,10.6,13.2,10.6,12.6z"/>
		<path class="st20" d="M33.8,9.3l-6.4,8.2c-0.4,0.5-0.4,1.2,0,1.7l6.8,8.5c0.3,0.3,0.6,0.5,1,0.5h2.4c1.1,0,1.8-1.3,1-2.2l-6.3-7.6
			l6-7.4c0.7-0.9,0.1-2.2-1-2.2h-2.5C34.5,8.8,34.1,9,33.8,9.3z"/>
		<path class="st20" d="M24.3,28.3L24.3,28.3c-1.5,0-2.6-1.1-2.6-2.5V3.5c0-1.4,1.1-2.5,2.5-2.5h0.1c1.4,0,2.5,1.1,2.5,2.5v22.3
			C26.8,27.2,25.7,28.3,24.3,28.3z"/>
		<circle class="st20" cx="16.2" cy="6.5" r="3.1"/>
		<path class="st20" d="M16.2,13c-0.5,0-1.1-0.1-1.5-0.4c-0.4-0.2-1,0.1-1,0.6v13.7c0,0.7,0.6,1.3,1.3,1.3h2.3
			c0.7,0,1.3-0.6,1.3-1.3V13.2c0-0.5-0.5-0.8-1-0.6C17.3,12.9,16.7,13,16.2,13z"/>
	</g>
</g>
<g>
	<g>
		<path class="st20" d="M115.6,10.5c1.7-1.5,3.1-2.1,6.2-2.4v2.5c-1.8,0-3.3,0.5-4.4,1.6c-1.2,1-1.8,2.7-1.8,5v10.9H113V8.5h2.6
			V10.5z"/>
		<path class="st20" d="M125.1,8.5V3.8l2.6-0.8v5.5h5.7V11h-5.7v11.9c0,1.1,0.2,1.8,0.6,2.3c0.4,0.5,1,0.7,1.9,0.7
			c0.8,0,1.9,0,3.1-0.1v2.3c-2.8,0.4-4.8,0.2-6.2-0.6c-1.4-0.8-2.1-2.4-2.1-4.6V11L125.1,8.5L125.1,8.5z"/>
		<path class="st20" d="M153.6,8.5v2.9c-2-2.2-4.9-3.6-8.2-3.4c-5.3,0.3-9.6,4.5-9.8,9.8c-0.3,6,4.4,10.9,10.4,10.9
			c3.1,0,5.8-1.3,7.7-3.4v2.9h2.6v-8.6v-2.5V8.5H153.6z M151.3,23.8c-1.5,1.5-3.3,2.3-5.5,2.3s-4-0.8-5.5-2.3s-2.2-3.3-2.2-5.5
			s0.7-4,2.2-5.5s3.3-2.3,5.5-2.3s4,0.8,5.5,2.3s2.2,3.3,2.2,5.5S152.8,22.3,151.3,23.8z"/>
		<circle class="st20" cx="168.9" cy="25.8" r="2.8"/>
		<path class="st20" d="M67.7,8.5v2.9c2-2.2,4.9-3.6,8.2-3.4c5.3,0.3,9.6,4.5,9.8,9.8c0.3,6-4.4,10.9-10.4,10.9
			c-3.1,0-5.8-1.3-7.7-3.4V36H65V19.5V17V8.5H67.7z M69.9,23.8c1.5,1.5,3.3,2.3,5.5,2.3s4-0.8,5.5-2.3s2.2-3.3,2.2-5.5
			s-0.7-4-2.2-5.5s-3.3-2.3-5.5-2.3s-4,0.8-5.5,2.3s-2.2,3.3-2.2,5.5S68.4,22.3,69.9,23.8z"/>
		<path class="st20" d="M106.2,25.6c-2,2-4.5,3-7.3,3c-2.9,0-5.4-1-7.4-3s-3-4.4-3-7.4s1-5.4,3-7.3c2-2,4.4-3,7.4-3
			c2.9,0,5.3,1,7.3,3s3,4.4,3,7.3C109.2,21.2,108.2,23.6,106.2,25.6z M93.3,23.8c1.5,1.5,3.3,2.2,5.5,2.2s4-0.7,5.5-2.2
			s2.2-3.4,2.2-5.6s-0.7-4-2.2-5.5s-3.3-2.3-5.5-2.3s-4,0.8-5.5,2.3s-2.2,3.3-2.2,5.5C91.1,20.4,91.8,22.3,93.3,23.8z"/>
		<path class="st20" d="M163.2,28.7h-2.6V0h2.6V28.7z"/>
	</g>
</g>
</svg>
