<?xml version="1.0" encoding="utf-8"?>
<!-- Generator: Adobe Illustrator 27.6.1, SVG Export Plug-In . SVG Version: 6.00 Build 0)  -->
<svg version="1.1" id="katman_1" xmlns="http://www.w3.org/2000/svg" xmlns:xlink="http://www.w3.org/1999/xlink" x="0px" y="0px"
	 viewBox="0 0 202 37.3" style="enable-background:new 0 0 202 37.3;" xml:space="preserve">
<style type="text/css">
	.st0{display:none;}
	.st1{display:inline;}
	.st2{clip-path:url(#SVGID_00000044865785193663280260000011718686104263987629_);fill:#313A48;}
	.st3{clip-path:url(#SVGID_00000070095092942993863210000004798445105109953962_);fill:#313A48;}
	.st4{clip-path:url(#SVGID_00000006693851765655786480000009908920156831622578_);fill:#313A48;}
	.st5{clip-path:url(#SVGID_00000076595811581993094740000001080729008804185484_);fill:#313A48;}
	.st6{clip-path:url(#SVGID_00000162325363280393289550000002344155152781305741_);fill:#313A48;}
	.st7{clip-path:url(#SVGID_00000164508700226966321330000009230587225406537882_);fill:#313A48;}
	.st8{clip-path:url(#SVGID_00000013172618178453893770000016491681898174971264_);fill:#313A48;}
	.st9{clip-path:url(#SVGID_00000096769110319215933810000016979711920141841806_);fill:#313A48;}
	.st10{clip-path:url(#SVGID_00000122000315931149837690000018031105087436332692_);fill:#024AD0;}
	.st11{clip-path:url(#SVGID_00000160900461241782477870000018191261002553755788_);fill:#024AD0;}
	.st12{clip-path:url(#SVGID_00000046302030725689930230000018446161207442634942_);fill:#024AD0;}
	.st13{clip-path:url(#SVGID_00000000904309167641465890000000342592790125855366_);fill:#024AD0;}
	.st14{clip-path:url(#SVGID_00000172423013728529304690000004429219655666177719_);fill:#024AD0;}
	.st15{clip-path:url(#SVGID_00000104664731427121242690000012911968900832656794_);fill:#024AD0;}
	.st16{clip-path:url(#SVGID_00000139979974690813402510000001302551397068477876_);fill:#024AD0;}
	.st17{clip-path:url(#SVGID_00000162342179451708175960000008704103804417035908_);fill:#313A48;}
	.st18{display:inline;fill:#313A48;}
	.st19{display:inline;fill:#024AD0;}
	.st20{fill:#174AFB;}
	.st21{fill:#313A48;}
</style>
<g class="st0">
	<g class="st1">
		<g>
			<g>
				<defs>
					<rect id="SVGID_1_" width="202" height="30"/>
				</defs>
				<clipPath id="SVGID_00000127764075167173123120000011698581111826202760_">
					<use xlink:href="#SVGID_1_"  style="overflow:visible;"/>
				</clipPath>
				<path style="clip-path:url(#SVGID_00000127764075167173123120000011698581111826202760_);fill:#313A48;" d="M115.4,28.8
					c-2.9,0-5.4-1-7.3-2.9c-1.9-2-2.9-4.4-2.9-7.3s1-5.3,2.9-7.3s4.4-2.9,7.3-2.9c1.9,0,3.6,0.5,5.2,1.4c1.5,0.9,2.6,2.2,3.3,3.7
					l-2.1,1.2c-0.5-1.2-1.4-2.1-2.5-2.8s-2.5-1-3.9-1c-2.2,0-4,0.7-5.5,2.2s-2.2,3.3-2.2,5.5s0.7,4,2.2,5.5s3.3,2.2,5.5,2.2
					c1.5,0,2.8-0.3,3.9-1s2-1.6,2.7-2.8l2.1,1.2c-0.8,1.6-2,2.8-3.5,3.7C119,28.4,117.3,28.8,115.4,28.8"/>
			</g>
		</g>
	</g>
	<g class="st1">
		<g>
			<g>
				<defs>
					<rect id="SVGID_00000041979710325195416270000008229902272340605373_" width="202" height="30"/>
				</defs>
				<clipPath id="SVGID_00000094595267802889595060000003401455975854162092_">
					<use xlink:href="#SVGID_00000041979710325195416270000008229902272340605373_"  style="overflow:visible;"/>
				</clipPath>
				<path style="clip-path:url(#SVGID_00000094595267802889595060000003401455975854162092_);fill:#313A48;" d="M145.1,8.9h2.6v19.5
					h-2.6v-3.8c-1.8,2.9-4.4,4.3-7.9,4.3c-2.8,0-5.1-1-7.1-3s-2.9-4.4-2.9-7.2c0-2.9,1-5.3,2.9-7.2c2-2,4.3-3,7.1-3
					c3.5,0,6.1,1.4,7.9,4.3V8.9z M131.9,24.1c1.5,1.5,3.3,2.2,5.5,2.2s4-0.7,5.5-2.2s2.2-3.3,2.2-5.5s-0.7-4-2.2-5.5
					s-3.3-2.2-5.5-2.2s-4,0.7-5.5,2.2s-2.2,3.3-2.2,5.5S130.5,22.6,131.9,24.1"/>
			</g>
		</g>
	</g>
	<g class="st1">
		<g>
			<g>
				<defs>
					<rect id="SVGID_00000031900343581840900350000016370461827696175265_" width="202" height="30"/>
				</defs>
				<clipPath id="SVGID_00000164477074709423180870000013647165544913146295_">
					<use xlink:href="#SVGID_00000031900343581840900350000016370461827696175265_"  style="overflow:visible;"/>
				</clipPath>
				<path style="clip-path:url(#SVGID_00000164477074709423180870000013647165544913146295_);fill:#313A48;" d="M171.1,8.4
					c2.9,0,5.2,1,7,3.1c1.8,2,2.7,4.4,2.7,7.2c0,0.3,0,0.7-0.1,1.2h-17.1c0.3,2,1.1,3.5,2.5,4.7s3.2,1.7,5.2,1.7
					c1.5,0,2.8-0.3,3.8-0.9c1.1-0.6,1.9-1.4,2.4-2.4l2.3,1.3c-0.9,1.4-2,2.5-3.5,3.3s-3.2,1.2-5.1,1.2c-3.1,0-5.6-1-7.5-2.9
					s-2.9-4.4-2.9-7.3s0.9-5.3,2.8-7.3C165.7,9.4,168.1,8.4,171.1,8.4 M171.1,10.9c-2,0-3.7,0.6-5.1,1.8c-1.4,1.2-2.2,2.8-2.4,4.7
					h14.5c-0.3-2.1-1.1-3.6-2.4-4.8C174.4,11.5,172.9,10.9,171.1,10.9"/>
			</g>
		</g>
	</g>
	<g class="st1">
		<g>
			<g>
				<defs>
					<rect id="SVGID_00000031917649018146591470000015567876432221631875_" width="202" height="30"/>
				</defs>
				<clipPath id="SVGID_00000064330398239708133530000006678840596914824609_">
					<use xlink:href="#SVGID_00000031917649018146591470000015567876432221631875_"  style="overflow:visible;"/>
				</clipPath>
				<path style="clip-path:url(#SVGID_00000064330398239708133530000006678840596914824609_);fill:#313A48;" d="M88.3,8.9V4.2
					l2.6-0.8v5.5h5.6v2.5h-5.6v11.8c0,1.1,0.2,1.8,0.6,2.3s1,0.7,1.9,0.7c0.8,0,1.9,0,3.1-0.1v2.3c-2.7,0.4-4.8,0.2-6.1-0.6
					c-1.4-0.8-2-2.3-2-4.6V11.4L88.3,8.9L88.3,8.9z"/>
			</g>
		</g>
	</g>
	<g class="st1">
		<g>
			<g>
				<defs>
					<rect id="SVGID_00000131357099160482495210000009600660712123920290_" width="202" height="30"/>
				</defs>
				<clipPath id="SVGID_00000099647998506062818780000001752703423306276507_">
					<use xlink:href="#SVGID_00000131357099160482495210000009600660712123920290_"  style="overflow:visible;"/>
				</clipPath>
				<path style="clip-path:url(#SVGID_00000099647998506062818780000001752703423306276507_);fill:#313A48;" d="M184.4,8.9V4.2
					l2.6-0.8v5.5h5.6v2.5H187v11.8c0,1.1,0.2,1.8,0.6,2.3c0.4,0.5,1,0.7,1.9,0.7c0.8,0,1.9,0,3.1-0.1v2.3c-2.7,0.4-4.8,0.2-6.1-0.6
					c-1.4-0.8-2-2.3-2-4.6V11.4V8.9H184.4z"/>
			</g>
		</g>
	</g>
	<g class="st1">
		<g>
			<g>
				<defs>
					<rect id="SVGID_00000167363749170855181290000001712027934108066482_" width="202" height="30"/>
				</defs>
				<clipPath id="SVGID_00000173856967596504823010000009157516324571585410_">
					<use xlink:href="#SVGID_00000167363749170855181290000001712027934108066482_"  style="overflow:visible;"/>
				</clipPath>
				
					<rect x="99.5" y="8.9" style="clip-path:url(#SVGID_00000173856967596504823010000009157516324571585410_);fill:#313A48;" width="2.6" height="19.5"/>
			</g>
		</g>
	</g>
	<g class="st1">
		<g>
			<g>
				<defs>
					<rect id="SVGID_00000017500746907290678560000016007820069859058872_" width="202" height="30"/>
				</defs>
				<clipPath id="SVGID_00000178194753513968643370000018027231732463384234_">
					<use xlink:href="#SVGID_00000017500746907290678560000016007820069859058872_"  style="overflow:visible;"/>
				</clipPath>
				
					<rect x="99.5" y="3.5" style="clip-path:url(#SVGID_00000178194753513968643370000018027231732463384234_);fill:#313A48;" width="2.6" height="2.6"/>
			</g>
		</g>
	</g>
	<g class="st1">
		<g>
			<g>
				<defs>
					<rect id="SVGID_00000164494317640527465480000017119911811796231315_" width="202" height="30"/>
				</defs>
				<clipPath id="SVGID_00000171713721868847558930000011596336003617702043_">
					<use xlink:href="#SVGID_00000164494317640527465480000017119911811796231315_"  style="overflow:visible;"/>
				</clipPath>
				<path style="clip-path:url(#SVGID_00000171713721868847558930000011596336003617702043_);fill:#313A48;" d="M75.4,8.4
					c2.9,0,5.2,1,7,3.1c1.8,2,2.7,4.4,2.7,7.2c0,0.3,0,0.7-0.1,1.2H67.9c0.3,2,1.1,3.5,2.5,4.7s3.2,1.7,5.2,1.7
					c1.5,0,2.8-0.3,3.8-0.9c1.1-0.6,1.9-1.4,2.4-2.4l2.3,1.3c-0.9,1.4-2,2.5-3.5,3.3s-3.2,1.2-5.1,1.2c-3.1,0-5.6-1-7.5-2.9
					s-2.9-4.4-2.9-7.3s0.9-5.3,2.8-7.3C70,9.4,72.5,8.4,75.4,8.4 M75.4,10.9c-2,0-3.7,0.6-5.1,1.8s-2.2,2.8-2.4,4.7h14.5
					c-0.3-2.1-1-3.6-2.4-4.8C78.8,11.5,77.2,10.9,75.4,10.9"/>
			</g>
		</g>
	</g>
	<g class="st1">
		<g>
			<g>
				<defs>
					<rect id="SVGID_00000009556606173738317740000005194763086181833906_" width="202" height="30"/>
				</defs>
				<clipPath id="SVGID_00000008147089044803563190000001495894852911724731_">
					<use xlink:href="#SVGID_00000009556606173738317740000005194763086181833906_"  style="overflow:visible;"/>
				</clipPath>
				<path style="clip-path:url(#SVGID_00000008147089044803563190000001495894852911724731_);fill:#024AD0;" d="M200.8,25.6
					c0,1.5-1.3,2.8-2.8,2.8s-2.8-1.3-2.8-2.8s1.3-2.8,2.8-2.8C199.6,22.8,200.8,24,200.8,25.6"/>
			</g>
		</g>
	</g>
	<g class="st1">
		<g>
			<g>
				<defs>
					<rect id="SVGID_00000164512786385944023750000016086676590225811366_" width="202" height="30"/>
				</defs>
				<clipPath id="SVGID_00000060752426221100325820000013173604191710739081_">
					<use xlink:href="#SVGID_00000164512786385944023750000016086676590225811366_"  style="overflow:visible;"/>
				</clipPath>
				
					<rect x="13.7" y="8.9" style="clip-path:url(#SVGID_00000060752426221100325820000013173604191710739081_);fill:#024AD0;" width="5" height="19.5"/>
			</g>
		</g>
	</g>
	<g class="st1">
		<g>
			<g>
				<defs>
					<rect id="SVGID_00000127744259398589095350000010459475816393508008_" width="202" height="30"/>
				</defs>
				<clipPath id="SVGID_00000077325778761419653680000009801230356122291849_">
					<use xlink:href="#SVGID_00000127744259398589095350000010459475816393508008_"  style="overflow:visible;"/>
				</clipPath>
				<path style="clip-path:url(#SVGID_00000077325778761419653680000009801230356122291849_);fill:#024AD0;" d="M58.1,25.9
					c-2,2-4.4,3-7.3,3c-2.9,0-5.3-1-7.3-3s-3-4.4-3-7.3s1-5.3,3-7.3s4.4-3,7.3-3c2.9,0,5.3,1,7.3,3s3,4.4,3,7.3S60.1,23.9,58.1,25.9
					 M47,22.5c1,1,2.3,1.5,3.8,1.5s2.8-0.5,3.8-1.5s1.5-2.3,1.5-3.9s-0.5-2.8-1.5-3.9c-1-1-2.3-1.5-3.8-1.5S48,13.7,47,14.7
					s-1.5,2.3-1.5,3.9S46,21.5,47,22.5"/>
			</g>
		</g>
	</g>
	<g class="st1">
		<g>
			<g>
				<defs>
					<rect id="SVGID_00000005949212271960225490000007813646283688432273_" width="202" height="30"/>
				</defs>
				<clipPath id="SVGID_00000114070695495818732900000017671280725353118392_">
					<use xlink:href="#SVGID_00000005949212271960225490000007813646283688432273_"  style="overflow:visible;"/>
				</clipPath>
				<path style="clip-path:url(#SVGID_00000114070695495818732900000017671280725353118392_);fill:#024AD0;" d="M10.6,13.7V8.9H6.2
					V3.4h-5v3.5v1.9v4.8v5.1v3c0,3.7,1.8,5.4,3.8,6.1c1.8,0.6,3.6,0.6,4.7,0.5c0.3,0,0.6-0.1,1-0.1v-4.6c-1,0.1-1.8,0.1-2.4,0
					c-0.6,0-1.1-0.2-1.5-0.5c-0.3-0.3-0.5-0.8-0.5-1.5v-8.1h4.3C10.6,13.5,10.6,13.7,10.6,13.7z"/>
			</g>
		</g>
	</g>
	<g class="st1">
		<g>
			<g>
				<defs>
					<rect id="SVGID_00000093898788682300553110000008918204343973201794_" width="202" height="30"/>
				</defs>
				<clipPath id="SVGID_00000074406069742200597910000004390822829522246332_">
					<use xlink:href="#SVGID_00000093898788682300553110000008918204343973201794_"  style="overflow:visible;"/>
				</clipPath>
				<polygon style="clip-path:url(#SVGID_00000074406069742200597910000004390822829522246332_);fill:#024AD0;" points="34.3,8.9 
					26.8,18.5 34.7,28.4 40.5,28.4 32.4,18.5 40.3,8.9 				"/>
			</g>
		</g>
	</g>
	<g class="st1">
		<g>
			<g>
				<defs>
					<rect id="SVGID_00000003819191464827574960000017488638671867431319_" width="202" height="30"/>
				</defs>
				<clipPath id="SVGID_00000088841420615814287170000014594477812422838717_">
					<use xlink:href="#SVGID_00000003819191464827574960000017488638671867431319_"  style="overflow:visible;"/>
				</clipPath>
				
					<rect x="21.8" y="1.1" style="clip-path:url(#SVGID_00000088841420615814287170000014594477812422838717_);fill:#024AD0;" width="5" height="27.3"/>
			</g>
		</g>
	</g>
	<g class="st1">
		<g>
			<g>
				<defs>
					<rect id="SVGID_00000081649429876754373770000001478349122563247289_" width="202" height="30"/>
				</defs>
				<clipPath id="SVGID_00000183211144077205205940000002636871662008748477_">
					<use xlink:href="#SVGID_00000081649429876754373770000001478349122563247289_"  style="overflow:visible;"/>
				</clipPath>
				<path style="clip-path:url(#SVGID_00000183211144077205205940000002636871662008748477_);fill:#024AD0;" d="M19.3,4.2
					c0,1.7-1.4,3.1-3.1,3.1s-3.1-1.4-3.1-3.1s1.4-3.1,3.1-3.1C17.9,1.1,19.3,2.5,19.3,4.2"/>
			</g>
		</g>
	</g>
	<g class="st1">
		<g>
			<g>
				<defs>
					<rect id="SVGID_00000028323593127452955940000013536705088338181761_" width="202" height="30"/>
				</defs>
				<clipPath id="SVGID_00000003085875467691311340000006035596559091922826_">
					<use xlink:href="#SVGID_00000028323593127452955940000013536705088338181761_"  style="overflow:visible;"/>
				</clipPath>
				<path style="clip-path:url(#SVGID_00000003085875467691311340000006035596559091922826_);fill:#313A48;" d="M153.3,10.9
					c1.6-1.5,3-2.1,6.2-2.3v2.5c-1.8,0-3.2,0.5-4.4,1.6c-1.2,1-1.8,2.7-1.8,4.9v10.8h-2.6V8.9h2.6V10.9z"/>
			</g>
		</g>
	</g>
</g>
<g class="st0">
	<path class="st18" d="M122.9,9V4.3l2.6-0.8V9h5.6v2.5h-5.6v11.7c0,1.1,0.2,1.8,0.6,2.3s1,0.7,1.9,0.7c0.8,0,1.9,0,3.1-0.1v2.2
		c-2.7,0.4-4.7,0.2-6.1-0.6c-1.4-0.8-2-2.3-2-4.6V11.4V9H122.9z"/>
	<rect x="155.9" y="1.2" class="st18" width="2.6" height="27.1"/>
	<rect x="88.2" y="9" class="st18" width="2.6" height="19.3"/>
	<rect x="88.2" y="3.6" class="st18" width="2.6" height="2.6"/>
	<rect x="117.2" y="9" class="st18" width="2.6" height="19.3"/>
	<rect x="117.2" y="3.6" class="st18" width="2.6" height="2.6"/>
	<path class="st18" d="M150.3,9v2.8c-1.9-2.1-4.6-3.4-7.6-3.4c-5.6,0-10.2,4.6-10.2,10.2s4.6,10.2,10.2,10.2c3,0,5.7-1.3,7.6-3.4
		v2.8h2.6v-8.5v-2.4V9H150.3z M148,24.1c-1.5,1.5-3.3,2.2-5.4,2.2c-2.1,0-3.9-0.7-5.4-2.2s-2.2-3.3-2.2-5.4s0.7-3.9,2.2-5.4
		s3.3-2.2,5.4-2.2c2.1,0,3.9,0.7,5.4,2.2s2.2,3.3,2.2,5.4C150.3,20.8,149.5,22.6,148,24.1"/>
	<path class="st18" d="M85.1,28.3v-8.5v-2.4V1.2h-2.6v10.6C80.7,9.7,78,8.4,75,8.4c-5.6,0-10.2,4.6-10.2,10.2S69.4,28.8,75,28.8
		c3,0,5.7-1.3,7.6-3.4v2.8h2.5V28.3z M82.6,18.6c0,2.1-0.7,4-2.2,5.4c-1.5,1.5-3.3,2.2-5.4,2.2s-3.9-0.7-5.4-2.2s-2.2-3.3-2.2-5.4
		s0.7-3.9,2.2-5.4C71,11.7,72.8,11,75,11c2.1,0,3.9,0.7,5.4,2.2S82.6,16.5,82.6,18.6"/>
	<path class="st18" d="M114.1,9h-2.6v2.8c-1.9-2.1-4.6-3.4-7.6-3.4c-1.1,0-2.1,0.2-3,0.5c-1.6,0.5-3,1.3-4.3,2.6
		c-1.9,2-2.9,4.4-2.9,7.2s1,5.2,2.9,7.2c1.2,1.3,2.7,2.1,4.2,2.6c1,0.3,2,0.5,3,0.5c3,0,5.7-1.3,7.6-3.4v2.1c0,2-0.6,3.6-1.9,4.7
		c-1.3,1.2-3,1.8-5.2,1.8c-3.5,0-5.8-1.2-6.9-3.5L95.2,32c1.6,3.1,4.6,4.7,9.2,4.7c2.7,0,4.9-0.8,6.8-2.4c1.9-1.6,2.9-3.8,2.9-6.6
		v-2.1l0,0V20v-2.4V9L114.1,9z M110.7,22.3c-0.3,0.6-0.8,1.2-1.3,1.7c-0.7,0.7-1.6,1.3-2.5,1.7c-0.9,0.4-1.9,0.6-3,0.6
		c-2.1,0-3.9-0.7-5.4-2.2c0,0,0,0-0.1-0.1c-1.4-1.5-2.1-3.3-2.1-5.4c0-1.3,0.3-2.5,0.8-3.6c0.3-0.7,0.8-1.3,1.4-1.8
		c0.2-0.2,0.3-0.3,0.5-0.5c1-0.8,2.1-1.4,3.3-1.6c0.5-0.1,1-0.1,1.5-0.1c2.1,0,3.9,0.7,5.4,2.2s2.2,3.3,2.2,5.4
		C111.6,20,111.3,21.2,110.7,22.3L110.7,22.3"/>
	<path class="st19" d="M168.1,25.5c0,1.5-1.2,2.8-2.8,2.8c-1.5,0-2.8-1.2-2.8-2.8c0-1.5,1.2-2.8,2.8-2.8
		C166.9,22.7,168.1,24,168.1,25.5"/>
	<rect x="13.6" y="9" class="st19" width="5" height="19.3"/>
	<path class="st19" d="M57.7,25.9c-2,2-4.4,3-7.3,3c-2.9,0-5.3-1-7.2-3c-2-2-3-4.4-3-7.2c0-2.9,1-5.3,3-7.2c2-2,4.4-3,7.2-3
		c2.9,0,5.3,1,7.3,3s3,4.4,3,7.2S59.7,23.9,57.7,25.9 M46.7,22.4c1,1,2.2,1.5,3.7,1.5s2.7-0.5,3.8-1.5c1-1,1.5-2.3,1.5-3.8
		s-0.5-2.8-1.5-3.8s-2.3-1.5-3.8-1.5s-2.7,0.5-3.7,1.5s-1.5,2.3-1.5,3.8S45.7,21.4,46.7,22.4"/>
	<path class="st19" d="M10.5,13.7V9H6.1V3.5h-5V7v2v4.8v5v3c0,3.6,1.8,5.3,3.8,6.1c1.8,0.5,3.6,0.6,4.6,0.5c0.3,0,0.6-0.1,0.9-0.1
		v-4.5c-1,0.1-1.8,0.1-2.4,0c-0.6,0-1.1-0.2-1.5-0.5C6.2,23,6,22.5,6,21.8v-8L10.5,13.7L10.5,13.7z"/>
	<polygon class="st19" points="34,9 26.6,18.5 34.4,28.3 40.2,28.3 32.2,18.5 40,9 	"/>
	<rect x="21.6" y="1.2" class="st19" width="5" height="27.1"/>
	<path class="st19" d="M19.2,4.3c0,1.7-1.4,3.1-3.1,3.1C14.3,7.4,13,6,13,4.3s1.4-3.1,3.1-3.1C17.8,1.2,19.2,2.6,19.2,4.3"/>
</g>
<g>
	<g>
		<path class="st20" d="M58,25.8c-2,2-4.4,3-7.3,3c-2.9,0-5.3-1-7.3-3c-2-2-3-4.4-3-7.3c0-2.9,1-5.3,3-7.3s4.4-3,7.3-3
			c2.9,0,5.3,1,7.3,3s3,4.4,3,7.3C61,21.4,60,23.8,58,25.8z M47,22.4c1,1,2.2,1.5,3.8,1.5c1.5,0,2.8-0.5,3.8-1.5
			c1-1,1.5-2.3,1.5-3.8c0-1.6-0.5-2.8-1.5-3.8c-1-1-2.3-1.5-3.8-1.5c-1.5,0-2.8,0.5-3.8,1.5c-1,1-1.5,2.3-1.5,3.8
			C45.5,20.1,46,21.4,47,22.4z"/>
		<path class="st20" d="M10.6,12.6V9.9c0-0.6-0.5-1-1-1H6.2V4.7c0-0.7-0.6-1.3-1.3-1.3H2.5C1.8,3.4,1.2,4,1.2,4.7v2.2v1.9v4.8v5.1v3
			c0,3.6,1.8,5.3,3.8,6.1c1.8,0.6,3.6,0.6,4.6,0.5l0,0c0.5,0,0.9-0.5,0.9-1l0-2.5c0-0.6-0.5-1-1.1-1c-0.5,0-1,0-1.4,0
			c-0.6,0-1.1-0.2-1.5-0.5c-0.3-0.3-0.5-0.8-0.5-1.5v-8.1h3.4C10.1,13.6,10.6,13.2,10.6,12.6z"/>
		<path class="st20" d="M33.8,9.3l-6.4,8.2c-0.4,0.5-0.4,1.2,0,1.7l6.8,8.5c0.3,0.3,0.6,0.5,1,0.5h2.4c1.1,0,1.8-1.3,1-2.2l-6.3-7.6
			l6-7.4c0.7-0.9,0.1-2.2-1-2.2h-2.5C34.5,8.8,34.1,9,33.8,9.3z"/>
		<path class="st20" d="M24.3,28.3L24.3,28.3c-1.5,0-2.6-1.1-2.6-2.5V3.5c0-1.4,1.1-2.5,2.5-2.5h0.1c1.4,0,2.5,1.1,2.5,2.5v22.3
			C26.8,27.2,25.7,28.3,24.3,28.3z"/>
		<circle class="st20" cx="16.2" cy="6.5" r="3.1"/>
		<path class="st20" d="M16.2,13c-0.5,0-1.1-0.1-1.5-0.4c-0.4-0.2-1,0.1-1,0.6v13.7c0,0.7,0.6,1.3,1.3,1.3h2.3
			c0.7,0,1.3-0.6,1.3-1.3V13.2c0-0.5-0.5-0.8-1-0.6C17.3,12.9,16.7,13,16.2,13z"/>
	</g>
</g>
<g>
	<g>
		<path class="st21" d="M115.6,10.5c1.7-1.5,3.1-2.1,6.2-2.4v2.5c-1.8,0-3.3,0.5-4.4,1.6c-1.2,1-1.8,2.7-1.8,5v10.9H113V8.5h2.6
			V10.5z"/>
		<path class="st21" d="M125.1,8.5V3.8l2.6-0.8v5.5h5.7V11h-5.7v11.9c0,1.1,0.2,1.8,0.6,2.3c0.4,0.5,1,0.7,1.9,0.7
			c0.8,0,1.9,0,3.1-0.1v2.3c-2.8,0.4-4.8,0.2-6.2-0.6c-1.4-0.8-2.1-2.4-2.1-4.6V11V8.5z"/>
		<path class="st21" d="M153.6,8.5v2.9c-2-2.2-4.9-3.6-8.2-3.4c-5.3,0.3-9.6,4.5-9.8,9.8c-0.3,6,4.4,10.9,10.4,10.9
			c3.1,0,5.8-1.3,7.7-3.4v2.9h2.6v-8.6v-2.5V8.5H153.6z M151.3,23.8c-1.5,1.5-3.3,2.3-5.5,2.3c-2.2,0-4-0.8-5.5-2.3
			c-1.5-1.5-2.2-3.3-2.2-5.5s0.7-4,2.2-5.5c1.5-1.5,3.3-2.3,5.5-2.3c2.2,0,4,0.8,5.5,2.3c1.5,1.5,2.2,3.3,2.2,5.5
			S152.8,22.3,151.3,23.8z"/>
		<circle class="st20" cx="168.9" cy="25.8" r="2.8"/>
		<path class="st21" d="M67.7,8.5v2.9c2-2.2,4.9-3.6,8.2-3.4c5.3,0.3,9.6,4.5,9.8,9.8c0.3,6-4.4,10.9-10.4,10.9
			c-3.1,0-5.8-1.3-7.7-3.4V36h-2.6V19.5v-2.5V8.5H67.7z M69.9,23.8c1.5,1.5,3.3,2.3,5.5,2.3c2.2,0,4-0.8,5.5-2.3
			c1.5-1.5,2.2-3.3,2.2-5.5s-0.7-4-2.2-5.5c-1.5-1.5-3.3-2.3-5.5-2.3c-2.2,0-4,0.8-5.5,2.3c-1.5,1.5-2.2,3.3-2.2,5.5
			S68.4,22.3,69.9,23.8z"/>
		<path class="st21" d="M106.2,25.6c-2,2-4.5,3-7.3,3c-2.9,0-5.4-1-7.4-3c-2-2-3-4.4-3-7.4s1-5.4,3-7.3c2-2,4.4-3,7.4-3
			c2.9,0,5.3,1,7.3,3c2,2,3,4.4,3,7.3C109.2,21.2,108.2,23.6,106.2,25.6z M93.3,23.8c1.5,1.5,3.3,2.2,5.5,2.2c2.2,0,4-0.7,5.5-2.2
			c1.5-1.5,2.2-3.4,2.2-5.6c0-2.2-0.7-4-2.2-5.5c-1.5-1.5-3.3-2.3-5.5-2.3c-2.2,0-4,0.8-5.5,2.3c-1.5,1.5-2.2,3.3-2.2,5.5
			C91.1,20.4,91.8,22.3,93.3,23.8z"/>
		<path class="st21" d="M163.2,28.7h-2.6V0h2.6V28.7z"/>
	</g>
</g>
</svg>
